<svg width="50" height="50" viewBox="0 0 50 50" fill="none" xmlns="http://www.w3.org/2000/svg">
<path d="M40 0C45.5228 0 50 4.47715 50 10L50 50L10 50C4.47715 50 2.38419e-06 45.5228 2.38419e-06 40L2.38419e-06 10C2.38419e-06 4.47715 4.47716 0 10 0L40 0Z" fill="#007AFF"/>
<path d="M19.9133 10V39.0835H14.3515V15.5227L8.75 16.9133V13.2977L14.3913 10H19.9133Z" fill="#FDFDFF"/>
<path d="M24.5035 33.4416V10H30.0653V31.8921C30.0653 32.3953 30.1183 32.8059 30.2243 33.1238C30.3567 33.4151 30.5686 33.6138 30.8599 33.7197C31.1777 33.8257 31.4293 33.8919 31.6147 33.9184C31.8001 33.9449 32.1047 33.9581 32.5284 33.9581H42.5V39.0835H30.5421C26.5164 39.0835 24.5035 37.2029 24.5035 33.4416Z" fill="#0048C2"/>
</svg>
