<svg width="50" height="50" viewBox="0 0 50 50" fill="none" xmlns="http://www.w3.org/2000/svg">
<path d="M40 0C45.5228 0 50 4.47715 50 10L50 50L10 50C4.47715 50 3.33786e-06 45.5228 3.33786e-06 40L3.33786e-06 10C3.33786e-06 4.47715 4.47716 0 10 0L40 0Z" fill="#007AFF"/>
<path d="M19.9133 11V40.0835H14.3515V16.5227L8.75 17.9133V14.2977L14.3913 11H19.9133Z" fill="#FDFDFF"/>
<path d="M24.5035 34.4416V11H30.0653V32.8921C30.0653 33.3953 30.1183 33.8059 30.2243 34.1238C30.3567 34.4151 30.5686 34.6138 30.8599 34.7197C31.1777 34.8257 31.4293 34.8919 31.6147 34.9184C31.8001 34.9449 32.1047 34.9581 32.5284 34.9581H42.5V40.0835H30.5421C26.5164 40.0835 24.5035 38.2029 24.5035 34.4416Z" fill="#FDFDFF"/>
</svg>
