<svg width="40" height="40" viewBox="0 0 40 40" fill="none" xmlns="http://www.w3.org/2000/svg">
<path d="M40 30C40 35.5228 35.5228 40 30 40L-9.53674e-06 40L-9.53674e-06 9.99999C-9.53674e-06 4.47714 4.47714 -9.53674e-06 9.99999 -9.53674e-06L30 -9.53674e-06C35.5228 -9.53674e-06 40 4.47714 40 9.99999L40 30Z" fill="#007AFF"/>
<path d="M15.9307 8V31.2668H11.4812V12.4181L7 13.5306V10.6382L11.513 8H15.9307Z" fill="#FDFDFF"/>
<path d="M19.6029 26.7533V8H24.0523V25.5137C24.0523 25.9163 24.0947 26.2447 24.1794 26.499C24.2854 26.7321 24.4549 26.891 24.688 26.9758C24.9422 27.0605 25.1435 27.1135 25.2918 27.1347C25.4401 27.1559 25.6838 27.1665 26.0228 27.1665H34V31.2668H24.4337C21.2132 31.2668 19.6029 29.7623 19.6029 26.7533Z" fill="#FDFDFF"/>
</svg>
