<svg width="116" height="117" viewBox="0 0 116 117" fill="none" xmlns="http://www.w3.org/2000/svg">
<path d="M53.9233 1.48241C54.3326 1.48241 54.6645 1.15056 54.6645 0.741203C54.6645 0.331842 54.3326 0 53.9233 0C53.5139 0 53.1821 0.331842 53.1821 0.741203C53.1821 1.15056 53.5139 1.48241 53.9233 1.48241Z" fill="#8643DC"/>
<path d="M50.2173 5.18846C50.6266 5.18846 50.9585 4.85662 50.9585 4.44726C50.9585 4.0379 50.6266 3.70605 50.2173 3.70605C49.8079 3.70605 49.4761 4.0379 49.4761 4.44726C49.4761 4.85662 49.8079 5.18846 50.2173 5.18846Z" fill="#8643DC"/>
<path d="M46.3259 8.89452C46.7352 8.89452 47.0671 8.56267 47.0671 8.15331C47.0671 7.74395 46.7352 7.41211 46.3259 7.41211C45.9165 7.41211 45.5846 7.74395 45.5846 8.15331C45.5846 8.56267 45.9165 8.89452 46.3259 8.89452Z" fill="#8643DC"/>
<path d="M42.6197 12.6006C43.0291 12.6006 43.3609 12.2687 43.3609 11.8594C43.3609 11.45 43.0291 11.1182 42.6197 11.1182C42.2104 11.1182 41.8785 11.45 41.8785 11.8594C41.8785 12.2687 42.2104 12.6006 42.6197 12.6006Z" fill="#8643DC"/>
<path d="M38.7283 16.4919C39.1377 16.4919 39.4695 16.1601 39.4695 15.7507C39.4695 15.3414 39.1377 15.0095 38.7283 15.0095C38.319 15.0095 37.9871 15.3414 37.9871 15.7507C37.9871 16.1601 38.319 16.4919 38.7283 16.4919Z" fill="#8643DC"/>
<path d="M35.0223 20.198C35.4317 20.198 35.7635 19.8661 35.7635 19.4568C35.7635 19.0474 35.4317 18.7156 35.0223 18.7156C34.613 18.7156 34.2811 19.0474 34.2811 19.4568C34.2811 19.8661 34.613 20.198 35.0223 20.198Z" fill="#8643DC"/>
<path d="M31.1309 23.9043C31.5402 23.9043 31.8721 23.5724 31.8721 23.1631C31.8721 22.7537 31.5402 22.4219 31.1309 22.4219C30.7215 22.4219 30.3896 22.7537 30.3896 23.1631C30.3896 23.5724 30.7215 23.9043 31.1309 23.9043Z" fill="#8643DC"/>
<path d="M27.4247 27.6103C27.8341 27.6103 28.1659 27.2785 28.1659 26.8691C28.1659 26.4598 27.8341 26.1279 27.4247 26.1279C27.0154 26.1279 26.6835 26.4598 26.6835 26.8691C26.6835 27.2785 27.0154 27.6103 27.4247 27.6103Z" fill="#8643DC"/>
<path d="M23.5334 31.3164C23.9428 31.3164 24.2746 30.9845 24.2746 30.5752C24.2746 30.1658 23.9428 29.834 23.5334 29.834C23.1241 29.834 22.7922 30.1658 22.7922 30.5752C22.7922 30.9845 23.1241 31.3164 23.5334 31.3164Z" fill="#8643DC"/>
<path d="M19.8274 35.0224C20.2367 35.0224 20.5686 34.6906 20.5686 34.2812C20.5686 33.8719 20.2367 33.54 19.8274 33.54C19.418 33.54 19.0862 33.8719 19.0862 34.2812C19.0862 34.6906 19.418 35.0224 19.8274 35.0224Z" fill="#8643DC"/>
<path d="M15.9361 38.7285C16.3454 38.7285 16.6773 38.3967 16.6773 37.9873C16.6773 37.5779 16.3454 37.2461 15.9361 37.2461C15.5267 37.2461 15.1949 37.5779 15.1949 37.9873C15.1949 38.3967 15.5267 38.7285 15.9361 38.7285Z" fill="#8643DC"/>
<path d="M12.23 42.4346C12.6394 42.4346 12.9713 42.1027 12.9713 41.6934C12.9713 41.284 12.6394 40.9521 12.23 40.9521C11.8207 40.9521 11.4888 41.284 11.4888 41.6934C11.4888 42.1027 11.8207 42.4346 12.23 42.4346Z" fill="#8643DC"/>
<path d="M8.33855 46.1406C8.74791 46.1406 9.07975 45.8088 9.07975 45.3994C9.07975 44.99 8.74791 44.6582 8.33855 44.6582C7.92919 44.6582 7.59729 44.99 7.59729 45.3994C7.59729 45.8088 7.92919 46.1406 8.33855 46.1406Z" fill="#8643DC"/>
<path d="M4.63262 49.8467C5.04198 49.8467 5.37382 49.5148 5.37382 49.1055C5.37382 48.6961 5.04198 48.3643 4.63262 48.3643C4.22326 48.3643 3.89136 48.6961 3.89136 49.1055C3.89136 49.5148 4.22326 49.8467 4.63262 49.8467Z" fill="#8643DC"/>
<path d="M0.741142 53.5527C1.1505 53.5527 1.48234 53.2209 1.48234 52.8115C1.48234 52.4022 1.1505 52.0703 0.741142 52.0703C0.331781 52.0703 -6.10352e-05 52.4022 -6.10352e-05 52.8115C-6.10352e-05 53.2209 0.331781 53.5527 0.741142 53.5527Z" fill="#8643DC"/>
<path d="M58.3705 5.92967C58.7799 5.92967 59.1117 5.59783 59.1117 5.18847C59.1117 4.77911 58.7799 4.44727 58.3705 4.44727C57.9612 4.44727 57.6293 4.77911 57.6293 5.18847C57.6293 5.59783 57.9612 5.92967 58.3705 5.92967Z" fill="#8643DC"/>
<path d="M54.6645 9.63573C55.0738 9.63573 55.4057 9.30388 55.4057 8.89452C55.4057 8.48516 55.0738 8.15332 54.6645 8.15332C54.2551 8.15332 53.9232 8.48516 53.9232 8.89452C53.9232 9.30388 54.2551 9.63573 54.6645 9.63573Z" fill="#8643DC"/>
<path d="M50.773 13.5271C51.1824 13.5271 51.5142 13.1952 51.5142 12.7859C51.5142 12.3765 51.1824 12.0447 50.773 12.0447C50.3636 12.0447 50.0318 12.3765 50.0318 12.7859C50.0318 13.1952 50.3636 13.5271 50.773 13.5271Z" fill="#8643DC"/>
<path d="M46.8818 17.2331C47.2911 17.2331 47.623 16.9013 47.623 16.4919C47.623 16.0826 47.2911 15.7507 46.8818 15.7507C46.4724 15.7507 46.1406 16.0826 46.1406 16.4919C46.1406 16.9013 46.4724 17.2331 46.8818 17.2331Z" fill="#8643DC"/>
<path d="M43.1757 20.9392C43.585 20.9392 43.9169 20.6074 43.9169 20.198C43.9169 19.7886 43.585 19.4568 43.1757 19.4568C42.7663 19.4568 42.4344 19.7886 42.4344 20.198C42.4344 20.6074 42.7663 20.9392 43.1757 20.9392Z" fill="#8643DC"/>
<path d="M39.2844 24.6452C39.6937 24.6452 40.0256 24.3134 40.0256 23.904C40.0256 23.4947 39.6937 23.1628 39.2844 23.1628C38.875 23.1628 38.5432 23.4947 38.5432 23.904C38.5432 24.3134 38.875 24.6452 39.2844 24.6452Z" fill="#8643DC"/>
<path d="M35.5783 28.3515C35.9877 28.3515 36.3195 28.0197 36.3195 27.6103C36.3195 27.201 35.9877 26.8691 35.5783 26.8691C35.1689 26.8691 34.8371 27.201 34.8371 27.6103C34.8371 28.0197 35.1689 28.3515 35.5783 28.3515Z" fill="#8643DC"/>
<path d="M31.6868 32.0576C32.0961 32.0576 32.428 31.7258 32.428 31.3164C32.428 30.907 32.0961 30.5752 31.6868 30.5752C31.2774 30.5752 30.9456 30.907 30.9456 31.3164C30.9456 31.7258 31.2774 32.0576 31.6868 32.0576Z" fill="#8643DC"/>
<path d="M27.9808 35.7637C28.3902 35.7637 28.7221 35.4318 28.7221 35.0225C28.7221 34.6131 28.3902 34.2812 27.9808 34.2812C27.5715 34.2812 27.2396 34.6131 27.2396 35.0225C27.2396 35.4318 27.5715 35.7637 27.9808 35.7637Z" fill="#8643DC"/>
<path d="M24.0893 39.4697C24.4987 39.4697 24.8305 39.1379 24.8305 38.7285C24.8305 38.3191 24.4987 37.9873 24.0893 37.9873C23.68 37.9873 23.3481 38.3191 23.3481 38.7285C23.3481 39.1379 23.68 39.4697 24.0893 39.4697Z" fill="#8643DC"/>
<path d="M20.3833 43.1758C20.7926 43.1758 21.1245 42.8439 21.1245 42.4346C21.1245 42.0252 20.7926 41.6934 20.3833 41.6934C19.9739 41.6934 19.642 42.0252 19.642 42.4346C19.642 42.8439 19.9739 43.1758 20.3833 43.1758Z" fill="#8643DC"/>
<path d="M16.4918 46.8818C16.9012 46.8818 17.233 46.55 17.233 46.1406C17.233 45.7313 16.9012 45.3994 16.4918 45.3994C16.0825 45.3994 15.7506 45.7313 15.7506 46.1406C15.7506 46.55 16.0825 46.8818 16.4918 46.8818Z" fill="#8643DC"/>
<path d="M12.7859 50.5879C13.1952 50.5879 13.5271 50.256 13.5271 49.8467C13.5271 49.4373 13.1952 49.1055 12.7859 49.1055C12.3765 49.1055 12.0447 49.4373 12.0447 49.8467C12.0447 50.256 12.3765 50.5879 12.7859 50.5879Z" fill="#8643DC"/>
<path d="M8.89446 54.2939C9.30382 54.2939 9.63567 53.9621 9.63567 53.5527C9.63567 53.1434 9.30382 52.8115 8.89446 52.8115C8.4851 52.8115 8.15326 53.1434 8.15326 53.5527C8.15326 53.9621 8.4851 54.2939 8.89446 54.2939Z" fill="#8643DC"/>
<path d="M5.18835 58C5.59771 58 5.92955 57.6681 5.92955 57.2588C5.92955 56.8494 5.59771 56.5176 5.18835 56.5176C4.77899 56.5176 4.44714 56.8494 4.44714 57.2588C4.44714 57.6681 4.77899 58 5.18835 58Z" fill="#8643DC"/>
<path d="M62.818 10.5622C63.2273 10.5622 63.5592 10.2304 63.5592 9.82104C63.5592 9.41168 63.2273 9.07983 62.818 9.07983C62.4086 9.07983 62.0768 9.41168 62.0768 9.82104C62.0768 10.2304 62.4086 10.5622 62.818 10.5622Z" fill="#8643DC"/>
<path d="M58.9266 14.2683C59.336 14.2683 59.6678 13.9365 59.6678 13.5271C59.6678 13.1177 59.336 12.7859 58.9266 12.7859C58.5173 12.7859 58.1854 13.1177 58.1854 13.5271C58.1854 13.9365 58.5173 14.2683 58.9266 14.2683Z" fill="#8643DC"/>
<path d="M55.2205 17.9743C55.6299 17.9743 55.9617 17.6425 55.9617 17.2331C55.9617 16.8238 55.6299 16.4919 55.2205 16.4919C54.8112 16.4919 54.4793 16.8238 54.4793 17.2331C54.4793 17.6425 54.8112 17.9743 55.2205 17.9743Z" fill="#8643DC"/>
<path d="M51.329 21.6804C51.7384 21.6804 52.0702 21.3486 52.0702 20.9392C52.0702 20.5298 51.7384 20.198 51.329 20.198C50.9197 20.198 50.5878 20.5298 50.5878 20.9392C50.5878 21.3486 50.9197 21.6804 51.329 21.6804Z" fill="#8643DC"/>
<path d="M47.623 25.3865C48.0324 25.3865 48.3642 25.0546 48.3642 24.6453C48.3642 24.2359 48.0324 23.9041 47.623 23.9041C47.2137 23.9041 46.8818 24.2359 46.8818 24.6453C46.8818 25.0546 47.2137 25.3865 47.623 25.3865Z" fill="#8643DC"/>
<path d="M43.7317 29.0925C44.141 29.0925 44.4729 28.7607 44.4729 28.3513C44.4729 27.9419 44.141 27.6101 43.7317 27.6101C43.3223 27.6101 42.9905 27.9419 42.9905 28.3513C42.9905 28.7607 43.3223 29.0925 43.7317 29.0925Z" fill="#8643DC"/>
<path d="M40.0256 32.7986C40.4349 32.7986 40.7668 32.4667 40.7668 32.0574C40.7668 31.648 40.4349 31.3162 40.0256 31.3162C39.6162 31.3162 39.2844 31.648 39.2844 32.0574C39.2844 32.4667 39.6162 32.7986 40.0256 32.7986Z" fill="#8643DC"/>
<path d="M36.1343 36.5049C36.5437 36.5049 36.8755 36.173 36.8755 35.7637C36.8755 35.3543 36.5437 35.0225 36.1343 35.0225C35.725 35.0225 35.3931 35.3543 35.3931 35.7637C35.3931 36.173 35.725 36.5049 36.1343 36.5049Z" fill="#8643DC"/>
<path d="M32.243 40.2109C32.6524 40.2109 32.9842 39.8791 32.9842 39.4697C32.9842 39.0604 32.6524 38.7285 32.243 38.7285C31.8337 38.7285 31.5018 39.0604 31.5018 39.4697C31.5018 39.8791 31.8337 40.2109 32.243 40.2109Z" fill="#8643DC"/>
<path d="M28.5369 43.917C28.9463 43.917 29.2781 43.5851 29.2781 43.1758C29.2781 42.7664 28.9463 42.4346 28.5369 42.4346C28.1276 42.4346 27.7957 42.7664 27.7957 43.1758C27.7957 43.5851 28.1276 43.917 28.5369 43.917Z" fill="#8643DC"/>
<path d="M24.6454 47.623C25.0548 47.623 25.3866 47.2912 25.3866 46.8818C25.3866 46.4725 25.0548 46.1406 24.6454 46.1406C24.2361 46.1406 23.9042 46.4725 23.9042 46.8818C23.9042 47.2912 24.2361 47.623 24.6454 47.623Z" fill="#8643DC"/>
<path d="M20.9393 51.3291C21.3487 51.3291 21.6805 50.9972 21.6805 50.5879C21.6805 50.1785 21.3487 49.8467 20.9393 49.8467C20.53 49.8467 20.1981 50.1785 20.1981 50.5879C20.1981 50.9972 20.53 51.3291 20.9393 51.3291Z" fill="#8643DC"/>
<path d="M17.048 55.0351C17.4573 55.0351 17.7892 54.7033 17.7892 54.2939C17.7892 53.8846 17.4573 53.5527 17.048 53.5527C16.6386 53.5527 16.3068 53.8846 16.3068 54.2939C16.3068 54.7033 16.6386 55.0351 17.048 55.0351Z" fill="#8643DC"/>
<path d="M13.3418 58.7412C13.7512 58.7412 14.0831 58.4094 14.0831 58C14.0831 57.5906 13.7512 57.2588 13.3418 57.2588C12.9325 57.2588 12.6006 57.5906 12.6006 58C12.6006 58.4094 12.9325 58.7412 13.3418 58.7412Z" fill="#8643DC"/>
<path d="M9.45049 62.4472C9.85985 62.4472 10.1918 62.1154 10.1918 61.706C10.1918 61.2967 9.85985 60.9648 9.45049 60.9648C9.04113 60.9648 8.70929 61.2967 8.70929 61.706C8.70929 62.1154 9.04113 62.4472 9.45049 62.4472Z" fill="#8643DC"/>
<path d="M67.0799 15.0096C67.4892 15.0096 67.8211 14.6777 67.8211 14.2683C67.8211 13.8589 67.4892 13.5271 67.0799 13.5271C66.6705 13.5271 66.3387 13.8589 66.3387 14.2683C66.3387 14.6777 66.6705 15.0096 67.0799 15.0096Z" fill="#8643DC"/>
<path d="M63.3738 18.7156C63.7831 18.7156 64.115 18.3837 64.115 17.9744C64.115 17.565 63.7831 17.2332 63.3738 17.2332C62.9644 17.2332 62.6326 17.565 62.6326 17.9744C62.6326 18.3837 62.9644 18.7156 63.3738 18.7156Z" fill="#8643DC"/>
<path d="M59.4825 22.4217C59.8919 22.4217 60.2238 22.0898 60.2238 21.6804C60.2238 21.2711 59.8919 20.9392 59.4825 20.9392C59.0732 20.9392 58.7413 21.2711 58.7413 21.6804C58.7413 22.0898 59.0732 22.4217 59.4825 22.4217Z" fill="#8643DC"/>
<path d="M55.7764 26.1277C56.1858 26.1277 56.5177 25.7958 56.5177 25.3865C56.5177 24.9771 56.1858 24.6453 55.7764 24.6453C55.3671 24.6453 55.0352 24.9771 55.0352 25.3865C55.0352 25.7958 55.3671 26.1277 55.7764 26.1277Z" fill="#8643DC"/>
<path d="M51.885 29.8338C52.2944 29.8338 52.6262 29.5019 52.6262 29.0925C52.6262 28.6832 52.2944 28.3513 51.885 28.3513C51.4756 28.3513 51.1437 28.6832 51.1437 29.0925C51.1437 29.5019 51.4756 29.8338 51.885 29.8338Z" fill="#8643DC"/>
<path d="M48.179 33.5398C48.5884 33.5398 48.9202 33.2079 48.9202 32.7986C48.9202 32.3892 48.5884 32.0574 48.179 32.0574C47.7696 32.0574 47.4377 32.3892 47.4377 32.7986C47.4377 33.2079 47.7696 33.5398 48.179 33.5398Z" fill="#8643DC"/>
<path d="M44.2875 37.2459C44.6969 37.2459 45.0287 36.914 45.0287 36.5046C45.0287 36.0953 44.6969 35.7634 44.2875 35.7634C43.8782 35.7634 43.5463 36.0953 43.5463 36.5046C43.5463 36.914 43.8782 37.2459 44.2875 37.2459Z" fill="#8643DC"/>
<path d="M40.5815 40.9519C40.9908 40.9519 41.3227 40.62 41.3227 40.2107C41.3227 39.8013 40.9908 39.4695 40.5815 39.4695C40.1721 39.4695 39.8403 39.8013 39.8403 40.2107C39.8403 40.62 40.1721 40.9519 40.5815 40.9519Z" fill="#8643DC"/>
<path d="M36.69 44.6582C37.0994 44.6582 37.4312 44.3263 37.4312 43.917C37.4312 43.5076 37.0994 43.1758 36.69 43.1758C36.2806 43.1758 35.9488 43.5076 35.9488 43.917C35.9488 44.3263 36.2806 44.6582 36.69 44.6582Z" fill="#8643DC"/>
<path d="M32.984 48.3643C33.3934 48.3643 33.7252 48.0324 33.7252 47.623C33.7252 47.2137 33.3934 46.8818 32.984 46.8818C32.5746 46.8818 32.2428 47.2137 32.2428 47.623C32.2428 48.0324 32.5746 48.3643 32.984 48.3643Z" fill="#8643DC"/>
<path d="M29.0926 52.0704C29.5019 52.0704 29.8338 51.7385 29.8338 51.3291C29.8338 50.9197 29.5019 50.5879 29.0926 50.5879C28.6832 50.5879 28.3514 50.9197 28.3514 51.3291C28.3514 51.7385 28.6832 52.0704 29.0926 52.0704Z" fill="#8643DC"/>
<path d="M25.3865 55.7764C25.7959 55.7764 26.1277 55.4445 26.1277 55.0351C26.1277 54.6258 25.7959 54.2939 25.3865 54.2939C24.9772 54.2939 24.6453 54.6258 24.6453 55.0351C24.6453 55.4445 24.9772 55.7764 25.3865 55.7764Z" fill="#8643DC"/>
<path d="M21.4952 59.4825C21.9046 59.4825 22.2365 59.1506 22.2365 58.7412C22.2365 58.3318 21.9046 58 21.4952 58C21.0859 58 20.754 58.3318 20.754 58.7412C20.754 59.1506 21.0859 59.4825 21.4952 59.4825Z" fill="#8643DC"/>
<path d="M17.7892 63.1885C18.1985 63.1885 18.5304 62.8566 18.5304 62.4473C18.5304 62.0379 18.1985 61.7061 17.7892 61.7061C17.3798 61.7061 17.048 62.0379 17.048 62.4473C17.048 62.8566 17.3798 63.1885 17.7892 63.1885Z" fill="#8643DC"/>
<path d="M13.8978 67.0798C14.3072 67.0798 14.639 66.748 14.639 66.3386C14.639 65.9293 14.3072 65.5974 13.8978 65.5974C13.4885 65.5974 13.1566 65.9293 13.1566 66.3386C13.1566 66.748 13.4885 67.0798 13.8978 67.0798Z" fill="#8643DC"/>
<path d="M71.527 19.4568C71.9364 19.4568 72.2683 19.125 72.2683 18.7156C72.2683 18.3063 71.9364 17.9744 71.527 17.9744C71.1177 17.9744 70.7858 18.3063 70.7858 18.7156C70.7858 19.125 71.1177 19.4568 71.527 19.4568Z" fill="#8643DC"/>
<path d="M67.6357 23.1629C68.0451 23.1629 68.3769 22.831 68.3769 22.4217C68.3769 22.0123 68.0451 21.6804 67.6357 21.6804C67.2264 21.6804 66.8945 22.0123 66.8945 22.4217C66.8945 22.831 67.2264 23.1629 67.6357 23.1629Z" fill="#8643DC"/>
<path d="M63.9296 26.8689C64.339 26.8689 64.6708 26.5371 64.6708 26.1277C64.6708 25.7184 64.339 25.3865 63.9296 25.3865C63.5203 25.3865 63.1884 25.7184 63.1884 26.1277C63.1884 26.5371 63.5203 26.8689 63.9296 26.8689Z" fill="#8643DC"/>
<path d="M60.0382 30.575C60.4476 30.575 60.7794 30.2432 60.7794 29.8338C60.7794 29.4244 60.4476 29.0925 60.0382 29.0925C59.6288 29.0925 59.297 29.4244 59.297 29.8338C59.297 30.2432 59.6288 30.575 60.0382 30.575Z" fill="#8643DC"/>
<path d="M56.3321 34.281C56.7414 34.281 57.0733 33.9492 57.0733 33.5398C57.0733 33.1305 56.7414 32.7986 56.3321 32.7986C55.9227 32.7986 55.5909 33.1305 55.5909 33.5398C55.5909 33.9492 55.9227 34.281 56.3321 34.281Z" fill="#8643DC"/>
<path d="M52.4407 37.9871C52.85 37.9871 53.1819 37.6553 53.1819 37.2459C53.1819 36.8365 52.85 36.5046 52.4407 36.5046C52.0313 36.5046 51.6995 36.8365 51.6995 37.2459C51.6995 37.6553 52.0313 37.9871 52.4407 37.9871Z" fill="#8643DC"/>
<path d="M48.7346 41.6932C49.144 41.6932 49.4758 41.3613 49.4758 40.952C49.4758 40.5426 49.144 40.2107 48.7346 40.2107C48.3252 40.2107 47.9934 40.5426 47.9934 40.952C47.9934 41.3613 48.3252 41.6932 48.7346 41.6932Z" fill="#8643DC"/>
<path d="M44.8433 45.3992C45.2527 45.3992 45.5845 45.0674 45.5845 44.658C45.5845 44.2486 45.2527 43.9167 44.8433 43.9167C44.434 43.9167 44.1021 44.2486 44.1021 44.658C44.1021 45.0674 44.434 45.3992 44.8433 45.3992Z" fill="#8643DC"/>
<path d="M41.1373 49.1055C41.5466 49.1055 41.8785 48.7737 41.8785 48.3643C41.8785 47.9549 41.5466 47.623 41.1373 47.623C40.7279 47.623 40.3961 47.9549 40.3961 48.3643C40.3961 48.7737 40.7279 49.1055 41.1373 49.1055Z" fill="#8643DC"/>
<path d="M37.2458 52.8116C37.6552 52.8116 37.9871 52.4797 37.9871 52.0704C37.9871 51.661 37.6552 51.3291 37.2458 51.3291C36.8365 51.3291 36.5046 51.661 36.5046 52.0704C36.5046 52.4797 36.8365 52.8116 37.2458 52.8116Z" fill="#8643DC"/>
<path d="M33.5398 56.5176C33.9492 56.5176 34.2811 56.1858 34.2811 55.7764C34.2811 55.3671 33.9492 55.0352 33.5398 55.0352C33.1305 55.0352 32.7986 55.3671 32.7986 55.7764C32.7986 56.1858 33.1305 56.5176 33.5398 56.5176Z" fill="#8643DC"/>
<path d="M29.6484 60.2237C30.0578 60.2237 30.3896 59.8918 30.3896 59.4825C30.3896 59.0731 30.0578 58.7412 29.6484 58.7412C29.2391 58.7412 28.9072 59.0731 28.9072 59.4825C28.9072 59.8918 29.2391 60.2237 29.6484 60.2237Z" fill="#8643DC"/>
<path d="M25.9424 64.115C26.3517 64.115 26.6836 63.7831 26.6836 63.3738C26.6836 62.9644 26.3517 62.6326 25.9424 62.6326C25.533 62.6326 25.2011 62.9644 25.2011 63.3738C25.2011 63.7831 25.533 64.115 25.9424 64.115Z" fill="#8643DC"/>
<path d="M22.0509 67.8211C22.4603 67.8211 22.7921 67.4892 22.7921 67.0798C22.7921 66.6705 22.4603 66.3386 22.0509 66.3386C21.6415 66.3386 21.3097 66.6705 21.3097 67.0798C21.3097 67.4892 21.6415 67.8211 22.0509 67.8211Z" fill="#8643DC"/>
<path d="M18.3449 71.5271C18.7543 71.5271 19.0861 71.1952 19.0861 70.7859C19.0861 70.3765 18.7543 70.0447 18.3449 70.0447C17.9355 70.0447 17.6037 70.3765 17.6037 70.7859C17.6037 71.1952 17.9355 71.5271 18.3449 71.5271Z" fill="#8643DC"/>
<path d="M75.9744 23.9043C76.3837 23.9043 76.7156 23.5724 76.7156 23.1631C76.7156 22.7537 76.3837 22.4219 75.9744 22.4219C75.565 22.4219 75.2331 22.7537 75.2331 23.1631C75.2331 23.5724 75.565 23.9043 75.9744 23.9043Z" fill="#8643DC"/>
<path d="M72.083 27.6103C72.4924 27.6103 72.8242 27.2785 72.8242 26.8691C72.8242 26.4598 72.4924 26.1279 72.083 26.1279C71.6736 26.1279 71.3418 26.4598 71.3418 26.8691C71.3418 27.2785 71.6736 27.6103 72.083 27.6103Z" fill="#8643DC"/>
<path d="M68.3769 31.3164C68.7862 31.3164 69.1181 30.9845 69.1181 30.5752C69.1181 30.1658 68.7862 29.834 68.3769 29.834C67.9675 29.834 67.6357 30.1658 67.6357 30.5752C67.6357 30.9845 67.9675 31.3164 68.3769 31.3164Z" fill="#8643DC"/>
<path d="M64.4855 35.0224C64.8949 35.0224 65.2267 34.6906 65.2267 34.2812C65.2267 33.8719 64.8949 33.54 64.4855 33.54C64.0762 33.54 63.7443 33.8719 63.7443 34.2812C63.7443 34.6906 64.0762 35.0224 64.4855 35.0224Z" fill="#8643DC"/>
<path d="M60.5941 38.7285C61.0035 38.7285 61.3353 38.3967 61.3353 37.9873C61.3353 37.5779 61.0035 37.2461 60.5941 37.2461C60.1847 37.2461 59.8529 37.5779 59.8529 37.9873C59.8529 38.3967 60.1847 38.7285 60.5941 38.7285Z" fill="#8643DC"/>
<path d="M56.8882 42.4346C57.2975 42.4346 57.6294 42.1027 57.6294 41.6934C57.6294 41.284 57.2975 40.9521 56.8882 40.9521C56.4788 40.9521 56.147 41.284 56.147 41.6934C56.147 42.1027 56.4788 42.4346 56.8882 42.4346Z" fill="#8643DC"/>
<path d="M52.9968 46.1406C53.4061 46.1406 53.738 45.8088 53.738 45.3994C53.738 44.99 53.4061 44.6582 52.9968 44.6582C52.5874 44.6582 52.2556 44.99 52.2556 45.3994C52.2556 45.8088 52.5874 46.1406 52.9968 46.1406Z" fill="#8643DC"/>
<path d="M49.2907 49.8467C49.7001 49.8467 50.032 49.5148 50.032 49.1055C50.032 48.6961 49.7001 48.3643 49.2907 48.3643C48.8813 48.3643 48.5495 48.6961 48.5495 49.1055C48.5495 49.5148 48.8813 49.8467 49.2907 49.8467Z" fill="#8643DC"/>
<path d="M45.3992 53.553C45.8086 53.553 46.1404 53.2211 46.1404 52.8118C46.1404 52.4024 45.8086 52.0706 45.3992 52.0706C44.9899 52.0706 44.658 52.4024 44.658 52.8118C44.658 53.2211 44.9899 53.553 45.3992 53.553Z" fill="#8643DC"/>
<path d="M41.6933 57.259C42.1026 57.259 42.4345 56.9272 42.4345 56.5178C42.4345 56.1085 42.1026 55.7766 41.6933 55.7766C41.2839 55.7766 40.952 56.1085 40.952 56.5178C40.952 56.9272 41.2839 57.259 41.6933 57.259Z" fill="#8643DC"/>
<path d="M37.8018 61.1502C38.2112 61.1502 38.543 60.8183 38.543 60.409C38.543 59.9996 38.2112 59.6677 37.8018 59.6677C37.3924 59.6677 37.0606 59.9996 37.0606 60.409C37.0606 60.8183 37.3924 61.1502 37.8018 61.1502Z" fill="#8643DC"/>
<path d="M34.0957 64.8565C34.5051 64.8565 34.8369 64.5246 34.8369 64.1153C34.8369 63.7059 34.5051 63.374 34.0957 63.374C33.6863 63.374 33.3545 63.7059 33.3545 64.1153C33.3545 64.5246 33.6863 64.8565 34.0957 64.8565Z" fill="#8643DC"/>
<path d="M30.2043 68.5625C30.6137 68.5625 30.9455 68.2307 30.9455 67.8213C30.9455 67.412 30.6137 67.0801 30.2043 67.0801C29.795 67.0801 29.4631 67.412 29.4631 67.8213C29.4631 68.2307 29.795 68.5625 30.2043 68.5625Z" fill="#8643DC"/>
<path d="M26.4982 72.2686C26.9076 72.2686 27.2394 71.9368 27.2394 71.5274C27.2394 71.118 26.9076 70.7861 26.4982 70.7861C26.0889 70.7861 25.757 71.118 25.757 71.5274C25.757 71.9368 26.0889 72.2686 26.4982 72.2686Z" fill="#8643DC"/>
<path d="M22.607 75.9747C23.0163 75.9747 23.3482 75.6428 23.3482 75.2334C23.3482 74.8241 23.0163 74.4922 22.607 74.4922C22.1976 74.4922 21.8658 74.8241 21.8658 75.2334C21.8658 75.6428 22.1976 75.9747 22.607 75.9747Z" fill="#8643DC"/>
<path d="M80.2364 28.3515C80.6457 28.3515 80.9776 28.0197 80.9776 27.6103C80.9776 27.201 80.6457 26.8691 80.2364 26.8691C79.827 26.8691 79.4952 27.201 79.4952 27.6103C79.4952 28.0197 79.827 28.3515 80.2364 28.3515Z" fill="#8643DC"/>
<path d="M76.5304 32.0576C76.9397 32.0576 77.2716 31.7258 77.2716 31.3164C77.2716 30.907 76.9397 30.5752 76.5304 30.5752C76.121 30.5752 75.7892 30.907 75.7892 31.3164C75.7892 31.7258 76.121 32.0576 76.5304 32.0576Z" fill="#8643DC"/>
<path d="M72.6389 35.7637C73.0483 35.7637 73.3801 35.4318 73.3801 35.0225C73.3801 34.6131 73.0483 34.2812 72.6389 34.2812C72.2295 34.2812 71.8977 34.6131 71.8977 35.0225C71.8977 35.4318 72.2295 35.7637 72.6389 35.7637Z" fill="#8643DC"/>
<path d="M68.9328 39.4697C69.3422 39.4697 69.674 39.1379 69.674 38.7285C69.674 38.3191 69.3422 37.9873 68.9328 37.9873C68.5234 37.9873 68.1916 38.3191 68.1916 38.7285C68.1916 39.1379 68.5234 39.4697 68.9328 39.4697Z" fill="#8643DC"/>
<path d="M65.0415 43.1758C65.4509 43.1758 65.7828 42.8439 65.7828 42.4346C65.7828 42.0252 65.4509 41.6934 65.0415 41.6934C64.6321 41.6934 64.3003 42.0252 64.3003 42.4346C64.3003 42.8439 64.6321 43.1758 65.0415 43.1758Z" fill="#8643DC"/>
<path d="M61.3354 46.8818C61.7448 46.8818 62.0767 46.55 62.0767 46.1406C62.0767 45.7313 61.7448 45.3994 61.3354 45.3994C60.9261 45.3994 60.5942 45.7313 60.5942 46.1406C60.5942 46.55 60.9261 46.8818 61.3354 46.8818Z" fill="#8643DC"/>
<path d="M57.4442 50.5879C57.8536 50.5879 58.1854 50.256 58.1854 49.8467C58.1854 49.4373 57.8536 49.1055 57.4442 49.1055C57.0348 49.1055 56.7029 49.4373 56.7029 49.8467C56.7029 50.256 57.0348 50.5879 57.4442 50.5879Z" fill="#8643DC"/>
<path d="M53.7381 54.2939C54.1475 54.2939 54.4793 53.9621 54.4793 53.5527C54.4793 53.1434 54.1475 52.8115 53.7381 52.8115C53.3288 52.8115 52.9969 53.1434 52.9969 53.5527C52.9969 53.9621 53.3288 54.2939 53.7381 54.2939Z" fill="#8643DC"/>
<path d="M49.8467 58.0002C50.256 58.0002 50.5879 57.6684 50.5879 57.259C50.5879 56.8497 50.256 56.5178 49.8467 56.5178C49.4373 56.5178 49.1055 56.8497 49.1055 57.259C49.1055 57.6684 49.4373 58.0002 49.8467 58.0002Z" fill="#8643DC"/>
<path d="M45.9553 61.8916C46.3647 61.8916 46.6965 61.5597 46.6965 61.1504C46.6965 60.741 46.3647 60.4092 45.9553 60.4092C45.546 60.4092 45.2141 60.741 45.2141 61.1504C45.2141 61.5597 45.546 61.8916 45.9553 61.8916Z" fill="#8643DC"/>
<path d="M42.2492 65.5976C42.6586 65.5976 42.9904 65.2658 42.9904 64.8564C42.9904 64.4471 42.6586 64.1152 42.2492 64.1152C41.8398 64.1152 41.508 64.4471 41.508 64.8564C41.508 65.2658 41.8398 65.5976 42.2492 65.5976Z" fill="#8643DC"/>
<path d="M38.3577 69.3037C38.7671 69.3037 39.0989 68.9719 39.0989 68.5625C39.0989 68.1531 38.7671 67.8213 38.3577 67.8213C37.9484 67.8213 37.6165 68.1531 37.6165 68.5625C37.6165 68.9719 37.9484 69.3037 38.3577 69.3037Z" fill="#8643DC"/>
<path d="M34.6516 73.0097C35.061 73.0097 35.3928 72.6779 35.3928 72.2685C35.3928 71.8592 35.061 71.5273 34.6516 71.5273C34.2422 71.5273 33.9104 71.8592 33.9104 72.2685C33.9104 72.6779 34.2422 73.0097 34.6516 73.0097Z" fill="#8643DC"/>
<path d="M30.7604 76.7158C31.1697 76.7158 31.5016 76.384 31.5016 75.9746C31.5016 75.5652 31.1697 75.2334 30.7604 75.2334C30.351 75.2334 30.0192 75.5652 30.0192 75.9746C30.0192 76.384 30.351 76.7158 30.7604 76.7158Z" fill="#8643DC"/>
<path d="M27.0543 80.4219C27.4636 80.4219 27.7955 80.09 27.7955 79.6807C27.7955 79.2713 27.4636 78.9395 27.0543 78.9395C26.6449 78.9395 26.313 79.2713 26.313 79.6807C26.313 80.09 26.6449 80.4219 27.0543 80.4219Z" fill="#8643DC"/>
<path d="M84.6836 32.7988C85.093 32.7988 85.4248 32.467 85.4248 32.0576C85.4248 31.6482 85.093 31.3164 84.6836 31.3164C84.2743 31.3164 83.9424 31.6482 83.9424 32.0576C83.9424 32.467 84.2743 32.7988 84.6836 32.7988Z" fill="#8643DC"/>
<path d="M80.7924 36.5049C81.2017 36.5049 81.5336 36.173 81.5336 35.7637C81.5336 35.3543 81.2017 35.0225 80.7924 35.0225C80.383 35.0225 80.0511 35.3543 80.0511 35.7637C80.0511 36.173 80.383 36.5049 80.7924 36.5049Z" fill="#8643DC"/>
<path d="M77.0863 40.2109C77.4957 40.2109 77.8276 39.8791 77.8276 39.4697C77.8276 39.0604 77.4957 38.7285 77.0863 38.7285C76.6769 38.7285 76.3451 39.0604 76.3451 39.4697C76.3451 39.8791 76.6769 40.2109 77.0863 40.2109Z" fill="#8643DC"/>
<path d="M73.1949 43.917C73.6042 43.917 73.9361 43.5851 73.9361 43.1758C73.9361 42.7664 73.6042 42.4346 73.1949 42.4346C72.7855 42.4346 72.4536 42.7664 72.4536 43.1758C72.4536 43.5851 72.7855 43.917 73.1949 43.917Z" fill="#8643DC"/>
<path d="M69.4888 47.623C69.8981 47.623 70.23 47.2912 70.23 46.8818C70.23 46.4725 69.8981 46.1406 69.4888 46.1406C69.0794 46.1406 68.7475 46.4725 68.7475 46.8818C68.7475 47.2912 69.0794 47.623 69.4888 47.623Z" fill="#8643DC"/>
<path d="M65.5974 51.3291C66.0068 51.3291 66.3386 50.9972 66.3386 50.5879C66.3386 50.1785 66.0068 49.8467 65.5974 49.8467C65.188 49.8467 64.8562 50.1785 64.8562 50.5879C64.8562 50.9972 65.188 51.3291 65.5974 51.3291Z" fill="#8643DC"/>
<path d="M61.8913 55.0351C62.3007 55.0351 62.6326 54.7033 62.6326 54.2939C62.6326 53.8846 62.3007 53.5527 61.8913 53.5527C61.482 53.5527 61.1501 53.8846 61.1501 54.2939C61.1501 54.7033 61.482 55.0351 61.8913 55.0351Z" fill="#8643DC"/>
<path d="M57.9998 58.9267C58.4092 58.9267 58.741 58.5949 58.741 58.1855C58.741 57.7762 58.4092 57.4443 57.9998 57.4443C57.5904 57.4443 57.2586 57.7762 57.2586 58.1855C57.2586 58.5949 57.5904 58.9267 57.9998 58.9267Z" fill="#8643DC"/>
<path d="M54.2939 62.6328C54.7032 62.6328 55.0351 62.301 55.0351 61.8916C55.0351 61.4822 54.7032 61.1504 54.2939 61.1504C53.8845 61.1504 53.5527 61.4822 53.5527 61.8916C53.5527 62.301 53.8845 62.6328 54.2939 62.6328Z" fill="#8643DC"/>
<path d="M50.4025 66.3389C50.8118 66.3389 51.1437 66.007 51.1437 65.5976C51.1437 65.1883 50.8118 64.8564 50.4025 64.8564C49.9931 64.8564 49.6613 65.1883 49.6613 65.5976C49.6613 66.007 49.9931 66.3389 50.4025 66.3389Z" fill="#8643DC"/>
<path d="M46.6964 70.0449C47.1058 70.0449 47.4376 69.7131 47.4376 69.3037C47.4376 68.8943 47.1058 68.5625 46.6964 68.5625C46.287 68.5625 45.9552 68.8943 45.9552 69.3037C45.9552 69.7131 46.287 70.0449 46.6964 70.0449Z" fill="#8643DC"/>
<path d="M42.8051 73.751C43.2145 73.751 43.5464 73.4191 43.5464 73.0098C43.5464 72.6004 43.2145 72.2686 42.8051 72.2686C42.3957 72.2686 42.0639 72.6004 42.0639 73.0098C42.0639 73.4191 42.3957 73.751 42.8051 73.751Z" fill="#8643DC"/>
<path d="M39.099 77.457C39.5084 77.457 39.8403 77.1252 39.8403 76.7158C39.8403 76.3065 39.5084 75.9746 39.099 75.9746C38.6896 75.9746 38.3578 76.3065 38.3578 76.7158C38.3578 77.1252 38.6896 77.457 39.099 77.457Z" fill="#8643DC"/>
<path d="M35.2077 81.1631C35.6171 81.1631 35.9489 80.8312 35.9489 80.4219C35.9489 80.0125 35.6171 79.6807 35.2077 79.6807C34.7983 79.6807 34.4664 80.0125 34.4664 80.4219C34.4664 80.8312 34.7983 81.1631 35.2077 81.1631Z" fill="#8643DC"/>
<path d="M31.5016 84.8691C31.9109 84.8691 32.2428 84.5373 32.2428 84.1279C32.2428 83.7186 31.9109 83.3867 31.5016 83.3867C31.0922 83.3867 30.7603 83.7186 30.7603 84.1279C30.7603 84.5373 31.0922 84.8691 31.5016 84.8691Z" fill="#8643DC"/>
<path d="M88.9455 37.2461C89.3549 37.2461 89.6867 36.9142 89.6867 36.5049C89.6867 36.0955 89.3549 35.7637 88.9455 35.7637C88.5362 35.7637 88.2043 36.0955 88.2043 36.5049C88.2043 36.9142 88.5362 37.2461 88.9455 37.2461Z" fill="#8643DC"/>
<path d="M85.2394 40.9522C85.6488 40.9522 85.9806 40.6203 85.9806 40.2109C85.9806 39.8016 85.6488 39.4697 85.2394 39.4697C84.8301 39.4697 84.4982 39.8016 84.4982 40.2109C84.4982 40.6203 84.8301 40.9522 85.2394 40.9522Z" fill="#8643DC"/>
<path d="M81.3481 44.6582C81.7575 44.6582 82.0893 44.3263 82.0893 43.917C82.0893 43.5076 81.7575 43.1758 81.3481 43.1758C80.9388 43.1758 80.6069 43.5076 80.6069 43.917C80.6069 44.3263 80.9388 44.6582 81.3481 44.6582Z" fill="#8643DC"/>
<path d="M77.642 48.3643C78.0514 48.3643 78.3832 48.0324 78.3832 47.623C78.3832 47.2137 78.0514 46.8818 77.642 46.8818C77.2327 46.8818 76.9008 47.2137 76.9008 47.623C76.9008 48.0324 77.2327 48.3643 77.642 48.3643Z" fill="#8643DC"/>
<path d="M73.7507 52.0704C74.1601 52.0704 74.4919 51.7385 74.4919 51.3291C74.4919 50.9197 74.1601 50.5879 73.7507 50.5879C73.3414 50.5879 73.0095 50.9197 73.0095 51.3291C73.0095 51.7385 73.3414 52.0704 73.7507 52.0704Z" fill="#8643DC"/>
<path d="M70.0447 55.9617C70.454 55.9617 70.7859 55.6298 70.7859 55.2205C70.7859 54.8111 70.454 54.4792 70.0447 54.4792C69.6353 54.4792 69.3035 54.8111 69.3035 55.2205C69.3035 55.6298 69.6353 55.9617 70.0447 55.9617Z" fill="#8643DC"/>
<path d="M66.1534 59.6677C66.5627 59.6677 66.8946 59.3359 66.8946 58.9265C66.8946 58.5171 66.5627 58.1853 66.1534 58.1853C65.744 58.1853 65.4122 58.5171 65.4122 58.9265C65.4122 59.3359 65.744 59.6677 66.1534 59.6677Z" fill="#8643DC"/>
<path d="M62.4473 63.374C62.8567 63.374 63.1885 63.0422 63.1885 62.6328C63.1885 62.2234 62.8567 61.8916 62.4473 61.8916C62.038 61.8916 61.7061 62.2234 61.7061 62.6328C61.7061 63.0422 62.038 63.374 62.4473 63.374Z" fill="#8643DC"/>
<path d="M58.5558 67.0801C58.9651 67.0801 59.297 66.7482 59.297 66.3389C59.297 65.9295 58.9651 65.5977 58.5558 65.5977C58.1464 65.5977 57.8146 65.9295 57.8146 66.3389C57.8146 66.7482 58.1464 67.0801 58.5558 67.0801Z" fill="#8643DC"/>
<path d="M54.8497 70.7861C55.2591 70.7861 55.591 70.4543 55.591 70.0449C55.591 69.6356 55.2591 69.3037 54.8497 69.3037C54.4404 69.3037 54.1085 69.6356 54.1085 70.0449C54.1085 70.4543 54.4404 70.7861 54.8497 70.7861Z" fill="#8643DC"/>
<path d="M50.9584 74.4922C51.3677 74.4922 51.6996 74.1603 51.6996 73.751C51.6996 73.3416 51.3677 73.0098 50.9584 73.0098C50.549 73.0098 50.2171 73.3416 50.2171 73.751C50.2171 74.1603 50.549 74.4922 50.9584 74.4922Z" fill="#8643DC"/>
<path d="M47.2523 78.1982C47.6617 78.1982 47.9935 77.8664 47.9935 77.457C47.9935 77.0477 47.6617 76.7158 47.2523 76.7158C46.8429 76.7158 46.511 77.0477 46.511 77.457C46.511 77.8664 46.8429 78.1982 47.2523 78.1982Z" fill="#8643DC"/>
<path d="M43.3608 81.9043C43.7702 81.9043 44.102 81.5724 44.102 81.1631C44.102 80.7537 43.7702 80.4219 43.3608 80.4219C42.9515 80.4219 42.6196 80.7537 42.6196 81.1631C42.6196 81.5724 42.9515 81.9043 43.3608 81.9043Z" fill="#8643DC"/>
<path d="M39.6548 85.6103C40.0642 85.6103 40.396 85.2785 40.396 84.8691C40.396 84.4598 40.0642 84.1279 39.6548 84.1279C39.2455 84.1279 38.9136 84.4598 38.9136 84.8691C38.9136 85.2785 39.2455 85.6103 39.6548 85.6103Z" fill="#8643DC"/>
<path d="M35.7635 89.3164C36.1728 89.3164 36.5047 88.9845 36.5047 88.5752C36.5047 88.1658 36.1728 87.834 35.7635 87.834C35.3541 87.834 35.0223 88.1658 35.0223 88.5752C35.0223 88.9845 35.3541 89.3164 35.7635 89.3164Z" fill="#8643DC"/>
<path d="M93.3929 41.6934C93.8022 41.6934 94.1341 41.3616 94.1341 40.9522C94.1341 40.5428 93.8022 40.2109 93.3929 40.2109C92.9835 40.2109 92.6517 40.5428 92.6517 40.9522C92.6517 41.3616 92.9835 41.6934 93.3929 41.6934Z" fill="#8643DC"/>
<path d="M89.6868 45.3995C90.0961 45.3995 90.428 45.0676 90.428 44.6583C90.428 44.2489 90.0961 43.917 89.6868 43.917C89.2774 43.917 88.9456 44.2489 88.9456 44.6583C88.9456 45.0676 89.2774 45.3995 89.6868 45.3995Z" fill="#8643DC"/>
<path d="M85.7954 49.1055C86.2048 49.1055 86.5366 48.7737 86.5366 48.3643C86.5366 47.9549 86.2048 47.623 85.7954 47.623C85.386 47.623 85.0542 47.9549 85.0542 48.3643C85.0542 48.7737 85.386 49.1055 85.7954 49.1055Z" fill="#8643DC"/>
<path d="M82.0893 52.9969C82.4986 52.9969 82.8305 52.665 82.8305 52.2556C82.8305 51.8462 82.4986 51.5144 82.0893 51.5144C81.6799 51.5144 81.3481 51.8462 81.3481 52.2556C81.3481 52.665 81.6799 52.9969 82.0893 52.9969Z" fill="#8643DC"/>
<path d="M78.1979 56.7029C78.6073 56.7029 78.9391 56.371 78.9391 55.9617C78.9391 55.5523 78.6073 55.2205 78.1979 55.2205C77.7886 55.2205 77.4567 55.5523 77.4567 55.9617C77.4567 56.371 77.7886 56.7029 78.1979 56.7029Z" fill="#8643DC"/>
<path d="M74.3066 60.409C74.716 60.409 75.0479 60.0771 75.0479 59.6677C75.0479 59.2584 74.716 58.9265 74.3066 58.9265C73.8973 58.9265 73.5654 59.2584 73.5654 59.6677C73.5654 60.0771 73.8973 60.409 74.3066 60.409Z" fill="#8643DC"/>
<path d="M70.6005 64.1153C71.0099 64.1153 71.3418 63.7834 71.3418 63.374C71.3418 62.9647 71.0099 62.6328 70.6005 62.6328C70.1912 62.6328 69.8593 62.9647 69.8593 63.374C69.8593 63.7834 70.1912 64.1153 70.6005 64.1153Z" fill="#8643DC"/>
<path d="M66.7092 67.8213C67.1186 67.8213 67.4504 67.4894 67.4504 67.0801C67.4504 66.6707 67.1186 66.3389 66.7092 66.3389C66.2999 66.3389 65.968 66.6707 65.968 67.0801C65.968 67.4894 66.2999 67.8213 66.7092 67.8213Z" fill="#8643DC"/>
<path d="M63.0031 71.5274C63.4125 71.5274 63.7443 71.1955 63.7443 70.7861C63.7443 70.3768 63.4125 70.0449 63.0031 70.0449C62.5937 70.0449 62.2618 70.3768 62.2618 70.7861C62.2618 71.1955 62.5937 71.5274 63.0031 71.5274Z" fill="#8643DC"/>
<path d="M59.1117 75.2334C59.521 75.2334 59.8529 74.9015 59.8529 74.4922C59.8529 74.0828 59.521 73.751 59.1117 73.751C58.7023 73.751 58.3705 74.0828 58.3705 74.4922C58.3705 74.9015 58.7023 75.2334 59.1117 75.2334Z" fill="#8643DC"/>
<path d="M55.4057 78.9395C55.8151 78.9395 56.1469 78.6076 56.1469 78.1982C56.1469 77.7889 55.8151 77.457 55.4057 77.457C54.9963 77.457 54.6645 77.7889 54.6645 78.1982C54.6645 78.6076 54.9963 78.9395 55.4057 78.9395Z" fill="#8643DC"/>
<path d="M51.5142 82.6455C51.9236 82.6455 52.2554 82.3137 52.2554 81.9043C52.2554 81.4949 51.9236 81.1631 51.5142 81.1631C51.1049 81.1631 50.773 81.4949 50.773 81.9043C50.773 82.3137 51.1049 82.6455 51.5142 82.6455Z" fill="#8643DC"/>
<path d="M47.8081 86.3516C48.2175 86.3516 48.5493 86.0197 48.5493 85.6103C48.5493 85.201 48.2175 84.8691 47.8081 84.8691C47.3987 84.8691 47.0669 85.201 47.0669 85.6103C47.0669 86.0197 47.3987 86.3516 47.8081 86.3516Z" fill="#8643DC"/>
<path d="M43.9167 90.0577C44.3261 90.0577 44.6579 89.7258 44.6579 89.3164C44.6579 88.907 44.3261 88.5752 43.9167 88.5752C43.5074 88.5752 43.1755 88.907 43.1755 89.3164C43.1755 89.7258 43.5074 90.0577 43.9167 90.0577Z" fill="#8643DC"/>
<path d="M40.2107 93.7637C40.6201 93.7637 40.9519 93.4318 40.9519 93.0225C40.9519 92.6131 40.6201 92.2812 40.2107 92.2812C39.8014 92.2812 39.4695 92.6131 39.4695 93.0225C39.4695 93.4318 39.8014 93.7637 40.2107 93.7637Z" fill="#8643DC"/>
<path d="M97.84 46.1406C98.2494 46.1406 98.5812 45.8088 98.5812 45.3994C98.5812 44.99 98.2494 44.6582 97.84 44.6582C97.4307 44.6582 97.0988 44.99 97.0988 45.3994C97.0988 45.8088 97.4307 46.1406 97.84 46.1406Z" fill="#8643DC"/>
<path d="M93.9488 50.032C94.3581 50.032 94.69 49.7002 94.69 49.2908C94.69 48.8815 94.3581 48.5496 93.9488 48.5496C93.5394 48.5496 93.2076 48.8815 93.2076 49.2908C93.2076 49.7002 93.5394 50.032 93.9488 50.032Z" fill="#8643DC"/>
<path d="M90.2427 53.7381C90.652 53.7381 90.9839 53.4062 90.9839 52.9969C90.9839 52.5875 90.652 52.2556 90.2427 52.2556C89.8333 52.2556 89.5015 52.5875 89.5015 52.9969C89.5015 53.4062 89.8333 53.7381 90.2427 53.7381Z" fill="#8643DC"/>
<path d="M86.3514 57.4441C86.7607 57.4441 87.0926 57.1123 87.0926 56.7029C87.0926 56.2936 86.7607 55.9617 86.3514 55.9617C85.942 55.9617 85.6102 56.2936 85.6102 56.7029C85.6102 57.1123 85.942 57.4441 86.3514 57.4441Z" fill="#8643DC"/>
<path d="M82.6453 61.1502C83.0547 61.1502 83.3866 60.8183 83.3866 60.409C83.3866 59.9996 83.0547 59.6677 82.6453 59.6677C82.236 59.6677 81.9041 59.9996 81.9041 60.409C81.9041 60.8183 82.236 61.1502 82.6453 61.1502Z" fill="#8643DC"/>
<path d="M78.754 64.8562C79.1633 64.8562 79.4952 64.5244 79.4952 64.115C79.4952 63.7057 79.1633 63.3738 78.754 63.3738C78.3446 63.3738 78.0127 63.7057 78.0127 64.115C78.0127 64.5244 78.3446 64.8562 78.754 64.8562Z" fill="#8643DC"/>
<path d="M75.0479 68.5623C75.4573 68.5623 75.7891 68.2305 75.7891 67.8211C75.7891 67.4117 75.4573 67.0798 75.0479 67.0798C74.6385 67.0798 74.3066 67.4117 74.3066 67.8211C74.3066 68.2305 74.6385 68.5623 75.0479 68.5623Z" fill="#8643DC"/>
<path d="M71.1564 72.2684C71.5658 72.2684 71.8976 71.9365 71.8976 71.5271C71.8976 71.1178 71.5658 70.7859 71.1564 70.7859C70.7471 70.7859 70.4152 71.1178 70.4152 71.5271C70.4152 71.9365 70.7471 72.2684 71.1564 72.2684Z" fill="#8643DC"/>
<path d="M67.4504 75.9744C67.8597 75.9744 68.1916 75.6426 68.1916 75.2332C68.1916 74.8238 67.8597 74.4919 67.4504 74.4919C67.041 74.4919 66.7092 74.8238 66.7092 75.2332C66.7092 75.6426 67.041 75.9744 67.4504 75.9744Z" fill="#8643DC"/>
<path d="M63.559 79.6805C63.9683 79.6805 64.3002 79.3486 64.3002 78.9393C64.3002 78.5299 63.9683 78.198 63.559 78.198C63.1496 78.198 62.8177 78.5299 62.8177 78.9393C62.8177 79.3486 63.1496 79.6805 63.559 79.6805Z" fill="#8643DC"/>
<path d="M59.6676 83.3868C60.077 83.3868 60.4088 83.0549 60.4088 82.6456C60.4088 82.2362 60.077 81.9043 59.6676 81.9043C59.2582 81.9043 58.9264 82.2362 58.9264 82.6456C58.9264 83.0549 59.2582 83.3868 59.6676 83.3868Z" fill="#8643DC"/>
<path d="M55.9615 87.0928C56.3708 87.0928 56.7027 86.761 56.7027 86.3516C56.7027 85.9422 56.3708 85.6104 55.9615 85.6104C55.5521 85.6104 55.2203 85.9422 55.2203 86.3516C55.2203 86.761 55.5521 87.0928 55.9615 87.0928Z" fill="#8643DC"/>
<path d="M52.0702 90.7989C52.4795 90.7989 52.8114 90.467 52.8114 90.0577C52.8114 89.6483 52.4795 89.3164 52.0702 89.3164C51.6608 89.3164 51.329 89.6483 51.329 90.0577C51.329 90.467 51.6608 90.7989 52.0702 90.7989Z" fill="#8643DC"/>
<path d="M48.3641 94.5049C48.7735 94.5049 49.1054 94.1731 49.1054 93.7637C49.1054 93.3544 48.7735 93.0225 48.3641 93.0225C47.9548 93.0225 47.6229 93.3544 47.6229 93.7637C47.6229 94.1731 47.9548 94.5049 48.3641 94.5049Z" fill="#8643DC"/>
<path d="M44.4728 98.211C44.8821 98.211 45.214 97.8791 45.214 97.4698C45.214 97.0604 44.8821 96.7285 44.4728 96.7285C44.0634 96.7285 43.7315 97.0604 43.7315 97.4698C43.7315 97.8791 44.0634 98.211 44.4728 98.211Z" fill="#8643DC"/>
<path d="M102.102 50.7732C102.512 50.7732 102.843 50.4413 102.843 50.032C102.843 49.6226 102.512 49.2908 102.102 49.2908C101.693 49.2908 101.361 49.6226 101.361 50.032C101.361 50.4413 101.693 50.7732 102.102 50.7732Z" fill="#8643DC"/>
<path d="M98.3961 54.4792C98.8055 54.4792 99.1374 54.1474 99.1374 53.738C99.1374 53.3287 98.8055 52.9968 98.3961 52.9968C97.9867 52.9968 97.6549 53.3287 97.6549 53.738C97.6549 54.1474 97.9867 54.4792 98.3961 54.4792Z" fill="#8643DC"/>
<path d="M94.5047 58.1853C94.9141 58.1853 95.246 57.8534 95.246 57.4441C95.246 57.0347 94.9141 56.7029 94.5047 56.7029C94.0954 56.7029 93.7635 57.0347 93.7635 57.4441C93.7635 57.8534 94.0954 58.1853 94.5047 58.1853Z" fill="#8643DC"/>
<path d="M90.7987 61.8913C91.2081 61.8913 91.5399 61.5595 91.5399 61.1501C91.5399 60.7408 91.2081 60.4089 90.7987 60.4089C90.3893 60.4089 90.0574 60.7408 90.0574 61.1501C90.0574 61.5595 90.3893 61.8913 90.7987 61.8913Z" fill="#8643DC"/>
<path d="M86.9072 65.5974C87.3166 65.5974 87.6484 65.2656 87.6484 64.8562C87.6484 64.4468 87.3166 64.115 86.9072 64.115C86.4979 64.115 86.166 64.4468 86.166 64.8562C86.166 65.2656 86.4979 65.5974 86.9072 65.5974Z" fill="#8643DC"/>
<path d="M83.2013 69.3035C83.6106 69.3035 83.9425 68.9716 83.9425 68.5622C83.9425 68.1529 83.6106 67.821 83.2013 67.821C82.7919 67.821 82.4601 68.1529 82.4601 68.5622C82.4601 68.9716 82.7919 69.3035 83.2013 69.3035Z" fill="#8643DC"/>
<path d="M79.3097 73.0095C79.7191 73.0095 80.0509 72.6777 80.0509 72.2683C80.0509 71.8589 79.7191 71.5271 79.3097 71.5271C78.9004 71.5271 78.5685 71.8589 78.5685 72.2683C78.5685 72.6777 78.9004 73.0095 79.3097 73.0095Z" fill="#8643DC"/>
<path d="M75.6037 76.7156C76.0131 76.7156 76.3449 76.3837 76.3449 75.9744C76.3449 75.565 76.0131 75.2332 75.6037 75.2332C75.1943 75.2332 74.8625 75.565 74.8625 75.9744C74.8625 76.3837 75.1943 76.7156 75.6037 76.7156Z" fill="#8643DC"/>
<path d="M71.7124 80.4219C72.1218 80.4219 72.4536 80.09 72.4536 79.6807C72.4536 79.2713 72.1218 78.9395 71.7124 78.9395C71.303 78.9395 70.9712 79.2713 70.9712 79.6807C70.9712 80.09 71.303 80.4219 71.7124 80.4219Z" fill="#8643DC"/>
<path d="M68.0063 84.1279C68.4157 84.1279 68.7475 83.7961 68.7475 83.3867C68.7475 82.9773 68.4157 82.6455 68.0063 82.6455C67.597 82.6455 67.2651 82.9773 67.2651 83.3867C67.2651 83.7961 67.597 84.1279 68.0063 84.1279Z" fill="#8643DC"/>
<path d="M64.1149 87.834C64.5243 87.834 64.8562 87.5021 64.8562 87.0928C64.8562 86.6834 64.5243 86.3516 64.1149 86.3516C63.7056 86.3516 63.3737 86.6834 63.3737 87.0928C63.3737 87.5021 63.7056 87.834 64.1149 87.834Z" fill="#8643DC"/>
<path d="M60.4088 91.54C60.8182 91.54 61.1501 91.2082 61.1501 90.7988C61.1501 90.3895 60.8182 90.0576 60.4088 90.0576C59.9994 90.0576 59.6676 90.3895 59.6676 90.7988C59.6676 91.2082 59.9994 91.54 60.4088 91.54Z" fill="#8643DC"/>
<path d="M56.5175 95.2461C56.9269 95.2461 57.2587 94.9142 57.2587 94.5049C57.2587 94.0955 56.9269 93.7637 56.5175 93.7637C56.1081 93.7637 55.7762 94.0955 55.7762 94.5049C55.7762 94.9142 56.1081 95.2461 56.5175 95.2461Z" fill="#8643DC"/>
<path d="M52.8114 98.9521C53.2208 98.9521 53.5526 98.6203 53.5526 98.2109C53.5526 97.8016 53.2208 97.4697 52.8114 97.4697C52.402 97.4697 52.0701 97.8016 52.0701 98.2109C52.0701 98.6203 52.402 98.9521 52.8114 98.9521Z" fill="#8643DC"/>
<path d="M48.9201 102.658C49.3295 102.658 49.6613 102.326 49.6613 101.917C49.6613 101.508 49.3295 101.176 48.9201 101.176C48.5107 101.176 48.1789 101.508 48.1789 101.917C48.1789 102.326 48.5107 102.658 48.9201 102.658Z" fill="#8643DC"/>
<path d="M106.549 55.2204C106.959 55.2204 107.291 54.8886 107.291 54.4792C107.291 54.0699 106.959 53.738 106.549 53.738C106.14 53.738 105.808 54.0699 105.808 54.4792C105.808 54.8886 106.14 55.2204 106.549 55.2204Z" fill="#8643DC"/>
<path d="M102.658 58.9265C103.067 58.9265 103.399 58.5947 103.399 58.1853C103.399 57.7759 103.067 57.4441 102.658 57.4441C102.249 57.4441 101.917 57.7759 101.917 58.1853C101.917 58.5947 102.249 58.9265 102.658 58.9265Z" fill="#8643DC"/>
<path d="M98.952 62.6326C99.3614 62.6326 99.6932 62.3007 99.6932 61.8913C99.6932 61.482 99.3614 61.1501 98.952 61.1501C98.5427 61.1501 98.2108 61.482 98.2108 61.8913C98.2108 62.3007 98.5427 62.6326 98.952 62.6326Z" fill="#8643DC"/>
<path d="M95.0606 66.3386C95.47 66.3386 95.8018 66.0068 95.8018 65.5974C95.8018 65.188 95.47 64.8562 95.0606 64.8562C94.6512 64.8562 94.3194 65.188 94.3194 65.5974C94.3194 66.0068 94.6512 66.3386 95.0606 66.3386Z" fill="#8643DC"/>
<path d="M91.3545 70.0447C91.7639 70.0447 92.0957 69.7128 92.0957 69.3035C92.0957 68.8941 91.7639 68.5623 91.3545 68.5623C90.9452 68.5623 90.6133 68.8941 90.6133 69.3035C90.6133 69.7128 90.9452 70.0447 91.3545 70.0447Z" fill="#8643DC"/>
<path d="M87.4632 73.7507C87.8726 73.7507 88.2045 73.4189 88.2045 73.0095C88.2045 72.6002 87.8726 72.2683 87.4632 72.2683C87.0539 72.2683 86.722 72.6002 86.722 73.0095C86.722 73.4189 87.0539 73.7507 87.4632 73.7507Z" fill="#8643DC"/>
<path d="M83.7571 77.4568C84.1665 77.4568 84.4983 77.1249 84.4983 76.7156C84.4983 76.3062 84.1665 75.9744 83.7571 75.9744C83.3478 75.9744 83.0159 76.3062 83.0159 76.7156C83.0159 77.1249 83.3478 77.4568 83.7571 77.4568Z" fill="#8643DC"/>
<path d="M79.8657 81.1631C80.275 81.1631 80.6069 80.8312 80.6069 80.4219C80.6069 80.0125 80.275 79.6807 79.8657 79.6807C79.4563 79.6807 79.1245 80.0125 79.1245 80.4219C79.1245 80.8312 79.4563 81.1631 79.8657 81.1631Z" fill="#8643DC"/>
<path d="M76.1597 84.8691C76.569 84.8691 76.9009 84.5373 76.9009 84.1279C76.9009 83.7186 76.569 83.3867 76.1597 83.3867C75.7503 83.3867 75.4185 83.7186 75.4185 84.1279C75.4185 84.5373 75.7503 84.8691 76.1597 84.8691Z" fill="#8643DC"/>
<path d="M72.2682 88.5752C72.6776 88.5752 73.0094 88.2433 73.0094 87.834C73.0094 87.4246 72.6776 87.0928 72.2682 87.0928C71.8589 87.0928 71.527 87.4246 71.527 87.834C71.527 88.2433 71.8589 88.5752 72.2682 88.5752Z" fill="#8643DC"/>
<path d="M68.5622 92.2812C68.9715 92.2812 69.3034 91.9494 69.3034 91.54C69.3034 91.1307 68.9715 90.7988 68.5622 90.7988C68.1528 90.7988 67.8209 91.1307 67.8209 91.54C67.8209 91.9494 68.1528 92.2812 68.5622 92.2812Z" fill="#8643DC"/>
<path d="M64.6708 95.9873C65.0802 95.9873 65.412 95.6554 65.412 95.2461C65.412 94.8367 65.0802 94.5049 64.6708 94.5049C64.2615 94.5049 63.9296 94.8367 63.9296 95.2461C63.9296 95.6554 64.2615 95.9873 64.6708 95.9873Z" fill="#8643DC"/>
<path d="M60.9647 99.6933C61.3741 99.6933 61.7059 99.3615 61.7059 98.9521C61.7059 98.5428 61.3741 98.2109 60.9647 98.2109C60.5554 98.2109 60.2235 98.5428 60.2235 98.9521C60.2235 99.3615 60.5554 99.6933 60.9647 99.6933Z" fill="#8643DC"/>
<path d="M57.0735 103.585C57.4828 103.585 57.8147 103.253 57.8147 102.843C57.8147 102.434 57.4828 102.102 57.0735 102.102C56.6641 102.102 56.3323 102.434 56.3323 102.843C56.3323 103.253 56.6641 103.585 57.0735 103.585Z" fill="#8643DC"/>
<path d="M53.3674 107.291C53.7767 107.291 54.1086 106.959 54.1086 106.55C54.1086 106.14 53.7767 105.808 53.3674 105.808C52.958 105.808 52.6262 106.14 52.6262 106.55C52.6262 106.959 52.958 107.291 53.3674 107.291Z" fill="#8643DC"/>
<path d="M110.997 59.6677C111.406 59.6677 111.738 59.3359 111.738 58.9265C111.738 58.5171 111.406 58.1853 110.997 58.1853C110.588 58.1853 110.256 58.5171 110.256 58.9265C110.256 59.3359 110.588 59.6677 110.997 59.6677Z" fill="#8643DC"/>
<path d="M107.105 63.3738C107.515 63.3738 107.847 63.0419 107.847 62.6326C107.847 62.2232 107.515 61.8914 107.105 61.8914C106.696 61.8914 106.364 62.2232 106.364 62.6326C106.364 63.0419 106.696 63.3738 107.105 63.3738Z" fill="#8643DC"/>
<path d="M103.399 67.0798C103.809 67.0798 104.141 66.748 104.141 66.3386C104.141 65.9293 103.809 65.5974 103.399 65.5974C102.99 65.5974 102.658 65.9293 102.658 66.3386C102.658 66.748 102.99 67.0798 103.399 67.0798Z" fill="#8643DC"/>
<path d="M99.5079 70.7859C99.9173 70.7859 100.249 70.454 100.249 70.0447C100.249 69.6353 99.9173 69.3035 99.5079 69.3035C99.0986 69.3035 98.7667 69.6353 98.7667 70.0447C98.7667 70.454 99.0986 70.7859 99.5079 70.7859Z" fill="#8643DC"/>
<path d="M95.8018 74.4919C96.2112 74.4919 96.543 74.1601 96.543 73.7507C96.543 73.3414 96.2112 73.0095 95.8018 73.0095C95.3924 73.0095 95.0606 73.3414 95.0606 73.7507C95.0606 74.1601 95.3924 74.4919 95.8018 74.4919Z" fill="#8643DC"/>
<path d="M91.9105 78.198C92.3199 78.198 92.6518 77.8661 92.6518 77.4568C92.6518 77.0474 92.3199 76.7156 91.9105 76.7156C91.5012 76.7156 91.1693 77.0474 91.1693 77.4568C91.1693 77.8661 91.5012 78.198 91.9105 78.198Z" fill="#8643DC"/>
<path d="M88.0193 81.904C88.4287 81.904 88.7605 81.5722 88.7605 81.1628C88.7605 80.7535 88.4287 80.4216 88.0193 80.4216C87.61 80.4216 87.2781 80.7535 87.2781 81.1628C87.2781 81.5722 87.61 81.904 88.0193 81.904Z" fill="#8643DC"/>
<path d="M84.3131 85.6101C84.7225 85.6101 85.0543 85.2782 85.0543 84.8689C85.0543 84.4595 84.7225 84.1277 84.3131 84.1277C83.9037 84.1277 83.5718 84.4595 83.5718 84.8689C83.5718 85.2782 83.9037 85.6101 84.3131 85.6101Z" fill="#8643DC"/>
<path d="M80.4218 89.3164C80.8312 89.3164 81.163 88.9845 81.163 88.5752C81.163 88.1658 80.8312 87.834 80.4218 87.834C80.0124 87.834 79.6806 88.1658 79.6806 88.5752C79.6806 88.9845 80.0124 89.3164 80.4218 89.3164Z" fill="#8643DC"/>
<path d="M76.7157 93.0224C77.1251 93.0224 77.4569 92.6906 77.4569 92.2812C77.4569 91.8719 77.1251 91.54 76.7157 91.54C76.3063 91.54 75.9745 91.8719 75.9745 92.2812C75.9745 92.6906 76.3063 93.0224 76.7157 93.0224Z" fill="#8643DC"/>
<path d="M72.8243 96.7285C73.2337 96.7285 73.5655 96.3967 73.5655 95.9873C73.5655 95.5779 73.2337 95.2461 72.8243 95.2461C72.415 95.2461 72.0831 95.5779 72.0831 95.9873C72.0831 96.3967 72.415 96.7285 72.8243 96.7285Z" fill="#8643DC"/>
<path d="M69.1182 100.62C69.5276 100.62 69.8594 100.288 69.8594 99.8787C69.8594 99.4693 69.5276 99.1375 69.1182 99.1375C68.7089 99.1375 68.377 99.4693 68.377 99.8787C68.377 100.288 68.7089 100.62 69.1182 100.62Z" fill="#8643DC"/>
<path d="M65.2267 104.326C65.6361 104.326 65.9679 103.994 65.9679 103.585C65.9679 103.175 65.6361 102.844 65.2267 102.844C64.8174 102.844 64.4855 103.175 64.4855 103.585C64.4855 103.994 64.8174 104.326 65.2267 104.326Z" fill="#8643DC"/>
<path d="M61.5207 108.032C61.9301 108.032 62.2619 107.7 62.2619 107.291C62.2619 106.881 61.9301 106.55 61.5207 106.55C61.1114 106.55 60.7795 106.881 60.7795 107.291C60.7795 107.7 61.1114 108.032 61.5207 108.032Z" fill="#8643DC"/>
<path d="M57.6293 111.738C58.0387 111.738 58.3706 111.406 58.3706 110.997C58.3706 110.587 58.0387 110.256 57.6293 110.256C57.22 110.256 56.8881 110.587 56.8881 110.997C56.8881 111.406 57.22 111.738 57.6293 111.738Z" fill="#8643DC"/>
<path d="M115.259 64.115C115.668 64.115 116 63.7831 116 63.3738C116 62.9644 115.668 62.6326 115.259 62.6326C114.849 62.6326 114.518 62.9644 114.518 63.3738C114.518 63.7831 114.849 64.115 115.259 64.115Z" fill="#8643DC"/>
<path d="M111.553 67.8211C111.962 67.8211 112.294 67.4892 112.294 67.0798C112.294 66.6705 111.962 66.3386 111.553 66.3386C111.143 66.3386 110.812 66.6705 110.812 67.0798C110.812 67.4892 111.143 67.8211 111.553 67.8211Z" fill="#8643DC"/>
<path d="M107.661 71.5271C108.071 71.5271 108.403 71.1952 108.403 70.7859C108.403 70.3765 108.071 70.0447 107.661 70.0447C107.252 70.0447 106.92 70.3765 106.92 70.7859C106.92 71.1952 107.252 71.5271 107.661 71.5271Z" fill="#8643DC"/>
<path d="M103.955 75.2332C104.365 75.2332 104.697 74.9013 104.697 74.4919C104.697 74.0826 104.365 73.7507 103.955 73.7507C103.546 73.7507 103.214 74.0826 103.214 74.4919C103.214 74.9013 103.546 75.2332 103.955 75.2332Z" fill="#8643DC"/>
<path d="M100.064 78.9392C100.473 78.9392 100.805 78.6074 100.805 78.198C100.805 77.7886 100.473 77.4568 100.064 77.4568C99.6545 77.4568 99.3226 77.7886 99.3226 78.198C99.3226 78.6074 99.6545 78.9392 100.064 78.9392Z" fill="#8643DC"/>
<path d="M96.3578 82.6453C96.7672 82.6453 97.099 82.3134 97.099 81.904C97.099 81.4947 96.7672 81.1628 96.3578 81.1628C95.9485 81.1628 95.6166 81.4947 95.6166 81.904C95.6166 82.3134 95.9485 82.6453 96.3578 82.6453Z" fill="#8643DC"/>
<path d="M92.4665 86.3514C92.8758 86.3514 93.2077 86.0195 93.2077 85.6101C93.2077 85.2007 92.8758 84.8689 92.4665 84.8689C92.0571 84.8689 91.7253 85.2007 91.7253 85.6101C91.7253 86.0195 92.0571 86.3514 92.4665 86.3514Z" fill="#8643DC"/>
<path d="M88.7604 90.0574C89.1698 90.0574 89.5016 89.7255 89.5016 89.3162C89.5016 88.9068 89.1698 88.575 88.7604 88.575C88.3511 88.575 88.0192 88.9068 88.0192 89.3162C88.0192 89.7255 88.3511 90.0574 88.7604 90.0574Z" fill="#8643DC"/>
<path d="M84.869 93.7637C85.2784 93.7637 85.6102 93.4318 85.6102 93.0225C85.6102 92.6131 85.2784 92.2812 84.869 92.2812C84.4596 92.2812 84.1278 92.6131 84.1278 93.0225C84.1278 93.4318 84.4596 93.7637 84.869 93.7637Z" fill="#8643DC"/>
<path d="M81.163 97.655C81.5723 97.655 81.9042 97.3232 81.9042 96.9138C81.9042 96.5044 81.5723 96.1726 81.163 96.1726C80.7536 96.1726 80.4218 96.5044 80.4218 96.9138C80.4218 97.3232 80.7536 97.655 81.163 97.655Z" fill="#8643DC"/>
<path d="M77.2715 101.361C77.6809 101.361 78.0127 101.029 78.0127 100.62C78.0127 100.211 77.6809 99.8787 77.2715 99.8787C76.8622 99.8787 76.5303 100.211 76.5303 100.62C76.5303 101.029 76.8622 101.361 77.2715 101.361Z" fill="#8643DC"/>
<path d="M73.3802 105.067C73.7896 105.067 74.1215 104.735 74.1215 104.326C74.1215 103.917 73.7896 103.585 73.3802 103.585C72.9709 103.585 72.639 103.917 72.639 104.326C72.639 104.735 72.9709 105.067 73.3802 105.067Z" fill="#8643DC"/>
<path d="M69.6742 108.773C70.0835 108.773 70.4154 108.441 70.4154 108.032C70.4154 107.623 70.0835 107.291 69.6742 107.291C69.2648 107.291 68.933 107.623 68.933 108.032C68.933 108.441 69.2648 108.773 69.6742 108.773Z" fill="#8643DC"/>
<path d="M65.7827 112.479C66.1921 112.479 66.5239 112.147 66.5239 111.738C66.5239 111.329 66.1921 110.997 65.7827 110.997C65.3733 110.997 65.0414 111.329 65.0414 111.738C65.0414 112.147 65.3733 112.479 65.7827 112.479Z" fill="#8643DC"/>
<path d="M62.0766 116.185C62.486 116.185 62.8179 115.853 62.8179 115.444C62.8179 115.035 62.486 114.703 62.0766 114.703C61.6673 114.703 61.3354 115.035 61.3354 115.444C61.3354 115.853 61.6673 116.185 62.0766 116.185Z" fill="#8643DC"/>
</svg>
