<svg width="77" height="7" viewBox="0 0 77 7" fill="none" xmlns="http://www.w3.org/2000/svg">
<path d="M74.9489 3.1778C75.2384 3.46726 75.7077 3.4673 75.9972 3.17784C76.2866 2.88838 76.2866 2.41904 75.9971 2.12958C75.7077 1.84012 75.2384 1.84012 74.9489 2.12958C74.6595 2.41904 74.6595 2.88834 74.9489 3.1778Z" fill="#8643DC"/>
<path d="M69.7078 3.1778C69.9973 3.46726 70.4666 3.4673 70.7561 3.17784C71.0455 2.88838 71.0455 2.41904 70.756 2.12958C70.4666 1.84012 69.9973 1.84012 69.7078 2.12958C69.4184 2.41904 69.4184 2.88834 69.7078 3.1778Z" fill="#8643DC"/>
<path d="M64.3355 3.04673C64.625 3.3362 65.0943 3.3362 65.3838 3.04673C65.6732 2.75727 65.6732 2.28798 65.3838 1.99851C65.0943 1.70905 64.625 1.70901 64.3355 1.99847C64.046 2.28794 64.0461 2.75727 64.3355 3.04673Z" fill="#8643DC"/>
<path d="M59.0943 3.04673C59.3838 3.3362 59.8531 3.3362 60.1426 3.04673C60.432 2.75727 60.432 2.28798 60.1426 1.99851C59.8531 1.70905 59.3838 1.70901 59.0943 1.99847C58.8048 2.28794 58.8049 2.75727 59.0943 3.04673Z" fill="#8643DC"/>
<path d="M53.591 3.04669C53.8805 3.33616 54.3498 3.33616 54.6392 3.04669C54.9287 2.75723 54.9287 2.28794 54.6392 1.99847C54.3498 1.70901 53.8805 1.70901 53.591 1.99847C53.3015 2.28794 53.3015 2.75723 53.591 3.04669Z" fill="#8643DC"/>
<path d="M48.3499 3.04669C48.6394 3.33616 49.1087 3.33616 49.3981 3.04669C49.6876 2.75723 49.6876 2.28794 49.3981 1.99847C49.1087 1.70901 48.6394 1.70901 48.3499 1.99847C48.0605 2.28794 48.0605 2.75723 48.3499 3.04669Z" fill="#8643DC"/>
<path d="M42.9776 2.91559C43.2671 3.20505 43.7364 3.20505 44.0258 2.91559C44.3153 2.62613 44.3153 2.15683 44.0258 1.86737C43.7364 1.57791 43.2671 1.57791 42.9776 1.86737C42.6881 2.15683 42.6881 2.62613 42.9776 2.91559Z" fill="#8643DC"/>
<path d="M37.7364 2.91559C38.0259 3.20505 38.4952 3.20505 38.7847 2.91559C39.0741 2.62613 39.0741 2.15683 38.7847 1.86737C38.4952 1.57791 38.0259 1.57791 37.7364 1.86737C37.447 2.15683 37.447 2.62613 37.7364 2.91559Z" fill="#8643DC"/>
<path d="M32.3643 2.78473C32.6538 3.07419 33.1231 3.07419 33.4125 2.78473C33.702 2.49527 33.702 2.02597 33.4125 1.73651C33.1231 1.44705 32.6538 1.44705 32.3643 1.73651C32.0749 2.02597 32.0749 2.49527 32.3643 2.78473Z" fill="#8643DC"/>
<path d="M27.1231 2.78473C27.4126 3.07419 27.8819 3.07419 28.1713 2.78473C28.4608 2.49527 28.4608 2.02597 28.1713 1.73651C27.8819 1.44705 27.4126 1.44705 27.1231 1.73651C26.8336 2.02597 26.8336 2.49527 27.1231 2.78473Z" fill="#8643DC"/>
<path d="M21.751 2.65363C22.0404 2.94309 22.5098 2.94313 22.7992 2.65367C23.0887 2.36421 23.0887 1.89487 22.7992 1.60541C22.5097 1.31595 22.0404 1.31595 21.751 1.60541C21.4615 1.89487 21.4615 2.36417 21.751 2.65363Z" fill="#8643DC"/>
<path d="M16.5098 2.65363C16.7992 2.94309 17.2686 2.94313 17.558 2.65367C17.8475 2.36421 17.8474 1.89487 17.558 1.60541C17.2685 1.31595 16.7992 1.31595 16.5098 1.60541C16.2203 1.89487 16.2203 2.36417 16.5098 2.65363Z" fill="#8643DC"/>
<path d="M11.1376 2.52256C11.427 2.81203 11.8963 2.81203 12.1858 2.52256C12.4752 2.2331 12.4752 1.76381 12.1858 1.47434C11.8963 1.18488 11.427 1.18484 11.1375 1.4743C10.848 1.76377 10.8481 2.2331 11.1376 2.52256Z" fill="#8643DC"/>
<path d="M5.8964 2.52256C6.18586 2.81203 6.65516 2.81203 6.94462 2.52256C7.23408 2.2331 7.23408 1.76381 6.94462 1.47434C6.65516 1.18488 6.18582 1.18484 5.89636 1.4743C5.6069 1.76377 5.60694 2.2331 5.8964 2.52256Z" fill="#8643DC"/>
<path d="M0.524169 2.39166C0.813631 2.68113 1.28293 2.68113 1.57239 2.39166C1.86185 2.1022 1.86185 1.63291 1.57239 1.34345C1.28293 1.05398 0.813631 1.05398 0.524169 1.34345C0.234707 1.63291 0.234707 2.1022 0.524169 2.39166Z" fill="#8643DC"/>
</svg>
