<svg aria-hidden="true" style="position: absolute; width: 0; height: 0; overflow: hidden;" version="1.1" xmlns="http://www.w3.org/2000/svg" xmlns:xlink="http://www.w3.org/1999/xlink">
<defs>
<symbol id="dots" viewBox="0 0 116 ">
<path d="M24.074 22.401c0.112 0 0.203-0.091 0.203-0.203s-0.091-0.203-0.203-0.203c-0.112 0-0.203 0.091-0.203 0.203s0.091 0.203 0.203 0.203z"></path>
<path d="M23.060 23.415c0.112 0 0.203-0.091 0.203-0.203s-0.091-0.203-0.203-0.203c-0.112 0-0.203 0.091-0.203 0.203s0.091 0.203 0.203 0.203z"></path>
<path d="M21.996 24.428c0.112 0 0.203-0.091 0.203-0.203s-0.091-0.203-0.203-0.203c-0.112 0-0.203 0.091-0.203 0.203s0.091 0.203 0.203 0.203z"></path>
<path d="M20.982 25.442c0.112 0 0.203-0.091 0.203-0.203s-0.091-0.203-0.203-0.203c-0.112 0-0.203 0.091-0.203 0.203s0.091 0.203 0.203 0.203z"></path>
<path d="M19.918 26.456c0.112 0 0.203-0.091 0.203-0.203s-0.091-0.203-0.203-0.203c-0.112 0-0.203 0.091-0.203 0.203s0.091 0.203 0.203 0.203z"></path>
<path d="M18.904 27.52c0.112 0 0.203-0.091 0.203-0.203s-0.091-0.203-0.203-0.203c-0.112 0-0.203 0.091-0.203 0.203s0.091 0.203 0.203 0.203z"></path>
<path d="M17.84 28.534c0.112 0 0.203-0.091 0.203-0.203s-0.091-0.203-0.203-0.203-0.203 0.091-0.203 0.203c0 0.112 0.091 0.203 0.203 0.203z"></path>
<path d="M16.826 29.547c0.112 0 0.203-0.091 0.203-0.203s-0.091-0.203-0.203-0.203-0.203 0.091-0.203 0.203c0 0.112 0.091 0.203 0.203 0.203z"></path>
<path d="M15.762 30.561c0.112 0 0.203-0.091 0.203-0.203s-0.091-0.203-0.203-0.203-0.203 0.091-0.203 0.203c0 0.112 0.091 0.203 0.203 0.203z"></path>
<path d="M31.524 17.536c0.112 0 0.203-0.091 0.203-0.203s-0.091-0.203-0.203-0.203c-0.112 0-0.203 0.091-0.203 0.203s0.091 0.203 0.203 0.203z"></path>
<path d="M30.51 18.549c0.112 0 0.203-0.091 0.203-0.203s-0.091-0.203-0.203-0.203c-0.112 0-0.203 0.091-0.203 0.203s0.091 0.203 0.203 0.203z"></path>
<path d="M29.446 19.563c0.112 0 0.203-0.091 0.203-0.203s-0.091-0.203-0.203-0.203c-0.112 0-0.203 0.091-0.203 0.203s0.091 0.203 0.203 0.203z"></path>
<path d="M28.432 20.577c0.112 0 0.203-0.091 0.203-0.203s-0.091-0.203-0.203-0.203c-0.112 0-0.203 0.091-0.203 0.203s0.091 0.203 0.203 0.203z"></path>
<path d="M27.368 21.59c0.112 0 0.203-0.091 0.203-0.203s-0.091-0.203-0.203-0.203c-0.112 0-0.203 0.091-0.203 0.203s0.091 0.203 0.203 0.203z"></path>
<path d="M26.354 22.604c0.112 0 0.203-0.091 0.203-0.203s-0.091-0.203-0.203-0.203c-0.112 0-0.203 0.091-0.203 0.203s0.091 0.203 0.203 0.203z"></path>
<path d="M25.29 23.617c0.112 0 0.203-0.091 0.203-0.203s-0.091-0.203-0.203-0.203c-0.112 0-0.203 0.091-0.203 0.203s0.091 0.203 0.203 0.203z"></path>
<path d="M24.276 24.631c0.112 0 0.203-0.091 0.203-0.203s-0.091-0.203-0.203-0.203c-0.112 0-0.203 0.091-0.203 0.203s0.091 0.203 0.203 0.203z"></path>
<path d="M23.212 25.645c0.112 0 0.203-0.091 0.203-0.203s-0.091-0.203-0.203-0.203c-0.112 0-0.203 0.091-0.203 0.203s0.091 0.203 0.203 0.203z"></path>
<path d="M22.198 26.709c0.112 0 0.203-0.091 0.203-0.203s-0.091-0.203-0.203-0.203c-0.112 0-0.203 0.091-0.203 0.203s0.091 0.203 0.203 0.203z"></path>
<path d="M21.134 27.723c0.112 0 0.203-0.091 0.203-0.203s-0.091-0.203-0.203-0.203c-0.112 0-0.203 0.091-0.203 0.203s0.091 0.203 0.203 0.203z"></path>
<path d="M20.070 28.736c0.112 0 0.203-0.091 0.203-0.203s-0.091-0.203-0.203-0.203c-0.112 0-0.203 0.091-0.203 0.203s0.091 0.203 0.203 0.203z"></path>
<path d="M19.056 29.75c0.112 0 0.203-0.091 0.203-0.203s-0.091-0.203-0.203-0.203c-0.112 0-0.203 0.091-0.203 0.203s0.091 0.203 0.203 0.203z"></path>
<path d="M17.992 30.764c0.112 0 0.203-0.091 0.203-0.203s-0.091-0.203-0.203-0.203c-0.112 0-0.203 0.091-0.203 0.203s0.091 0.203 0.203 0.203z"></path>
<path d="M16.978 31.777c0.112 0 0.203-0.091 0.203-0.203s-0.091-0.203-0.203-0.203c-0.112 0-0.203 0.091-0.203 0.203s0.091 0.203 0.203 0.203z"></path>
</symbol>
<symbol id="wave" viewBox="0 0 46 32">
<path d="M6.618 32c-1.018 0-2.036-0.582-2.909-1.091-1.382-0.727-2.255-1.164-2.982-0.727l-0.727-1.091c1.455-0.945 2.982-0.073 4.291 0.655 1.382 0.727 2.255 1.164 2.982 0.727 0.727-0.509 0.727-1.455 0.509-2.982-0.145-1.527-0.291-3.273 1.091-4.218 1.455-0.945 2.982-0.073 4.291 0.655 1.382 0.727 2.254 1.164 2.982 0.727 0.727-0.509 0.727-1.455 0.509-2.982-0.145-1.527-0.291-3.273 1.091-4.218 1.455-0.945 2.982-0.073 4.291 0.655 1.382 0.727 2.255 1.164 2.982 0.727 0.727-0.509 0.727-1.455 0.509-2.982-0.145-1.527-0.291-3.273 1.091-4.218 1.455-0.945 2.982-0.073 4.291 0.655 1.382 0.727 2.255 1.164 2.982 0.727 0.727-0.509 0.727-1.455 0.509-2.982-0.145-1.527-0.291-3.273 1.091-4.218 1.455-0.945 2.982-0.073 4.291 0.655 1.382 0.727 2.255 1.164 2.982 0.727 0.727-0.509 0.727-1.455 0.582-2.982s-0.291-3.273 1.091-4.218l0.727 1.091c-0.727 0.509-0.727 1.455-0.582 2.982s0.291 3.273-1.091 4.218c-1.455 0.945-2.982 0.073-4.291-0.655-1.382-0.727-2.255-1.164-2.982-0.727-0.727 0.509-0.727 1.455-0.509 2.982 0.145 1.527 0.291 3.273-1.091 4.218-1.455 0.945-2.982 0.073-4.291-0.655-1.382-0.727-2.254-1.164-2.982-0.727-0.727 0.509-0.727 1.455-0.509 2.982 0.145 1.527 0.291 3.273-1.091 4.218-1.455 0.945-2.982 0.073-4.291-0.655-1.382-0.727-2.255-1.164-2.982-0.727-0.727 0.509-0.727 1.455-0.509 2.982 0.145 1.527 0.291 3.273-1.091 4.218-1.455 0.945-2.982 0.073-4.291-0.655-1.382-0.727-2.255-1.164-2.982-0.727-0.727 0.509-0.727 1.455-0.509 2.982 0.145 1.527 0.291 3.273-1.091 4.218-0.509 0.291-0.945 0.436-1.382 0.436z"></path>
</symbol>
<symbol id="api" viewBox="0 0 24 24">
<path d="M14,12l-2,2l-2-2l2-2L14,12z M12,6l2.12,2.12l2.5-2.5L12,1L7.38,5.62l2.5,2.5L12,6z M6,12l2.12-2.12l-2.5-2.5L1,12 l4.62,4.62l2.5-2.5L6,12z M18,12l-2.12,2.12l2.5,2.5L23,12l-4.62-4.62l-2.5,2.5L18,12z M12,18l-2.12-2.12l-2.5,2.5L12,23l4.62-4.62 l-2.5-2.5L12,18z"/>
</symbol>
<symbol id="services" viewBox="0 0 84 79">
<path d="M74.8493 31.6282C77.5447 43.7203 52.8935 66.7871 31.4973 74.6902C10.1011 82.5933 10.1095 30.0477 15.1219 18.7294C20.1344 7.41103 72.1539 19.536 74.8493 31.6282Z" fill="#A7D9FF" fill-opacity="0.9"/>
<path d="M48.5867 7.99887C62.2605 12.2433 68.1782 44.5281 64.3987 67.0219C60.6192 89.5157 22.9916 64.6076 7.70219 53.4102C-7.58719 42.2129 34.9128 3.75442 48.5867 7.99887Z" fill="#0070F3" fill-opacity="0.7"/>
</symbol>
<symbol id="api" viewBox="0 0 24 24">
<path d="M14,12l-2,2l-2-2l2-2L14,12z M12,6l2.12,2.12l2.5-2.5L12,1L7.38,5.62l2.5,2.5L12,6z M6,12l2.12-2.12l-2.5-2.5L1,12 l4.62,4.62l2.5-2.5L6,12z M18,12l-2.12,2.12l2.5,2.5L23,12l-4.62-4.62l-2.5,2.5L18,12z M12,18l-2.12-2.12l-2.5,2.5L12,23l4.62-4.62 l-2.5-2.5L12,18z"/>
</symbol>
<symbol id="web" viewBox="0 0 24 24">
<path d="M20,4H4C2.9,4,2.01,4.9,2.01,6L2,18c0,1.1,0.9,2,2,2h16c1.1,0,2-0.9,2-2V6C22,4.9,21.1,4,20,4z M4,9h10.5v3.5H4V9z M4,14.5 h10.5V18L4,18V14.5z M20,18l-3.5,0V9H20V18z"/>
</symbol>
<symbol id="http" viewBox="0 0 24 24">
<path d="M4.5 11h-2V9H1v6h1.5v-2.5h2V15H6V9H4.5v2zm2.5-.5h1.5V15H10v-4.5h1.5V9H7v1.5zm5.5 0H14V15h1.5v-4.5H17V9h-4.5v1.5zm9-1.5H18v6h1.5v-2h2c.8 0 1.5-.7 1.5-1.5v-1c0-.8-.7-1.5-1.5-1.5zm0 2.5h-2v-1h2v1z"/>
</symbol>
<symbol id="micro" viewBox="0 0 24 24">
<path d="M7,19c-1.1,0-2,0.9-2,2h14c0-1.1-0.9-2-2-2h-4v-2h3c1.1,0,2-0.9,2-2h-8c-1.66,0-3-1.34-3-3c0-1.09,0.59-2.04,1.47-2.57 c0.41,0.59,1.06,1,1.83,1.06c0.7,0.06,1.36-0.19,1.85-0.62l0.59,1.61l0.94-0.34l0.34,0.94l1.88-0.68l-0.34-0.94l0.94-0.34 L13.76,2.6l-0.94,0.34L12.48,2L10.6,2.68l0.34,0.94L10,3.97l0.56,1.55C9.39,5.48,8.37,6.27,8.08,7.38C6.27,8.14,5,9.92,5,12 c0,2.76,2.24,5,5,5v2H7z M12.86,4.52l1.71,4.7l-0.94,0.34l-1.71-4.7L12.86,4.52z M10.5,7c0.55,0,1,0.45,1,1c0,0.55-0.45,1-1,1 c-0.55,0-1-0.45-1-1C9.5,7.45,9.95,7,10.5,7z"/>
</symbol>
<symbol id="polygon1" viewBox="0 0 656 625">
<path d="M588.9 244.563C610.935 343.417 409.409 531.991 234.493 596.6C59.5775 661.208 59.6458 231.643 100.623 139.114C141.6 46.5858 566.865 145.709 588.9 244.563Z"/>
</symbol>
<symbol id="polygon2" viewBox="0 0 630 643">
<path d="M397.2 65.3915C508.985 100.09 557.363 364.021 526.465 547.91C495.567 731.799 187.958 528.173 62.9657 436.634C-62.0264 345.095 285.415 30.6927 397.2 65.3915Z"/>
</symbol>
<symbol id="footer" preserveAspectRatio="none" viewBox="0 0 1440 320">
<path fill="#F8F8FF" fill-opacity="1" d="M0,96L48,90.7C96,85,192,75,288,80C384,85,480,107,576,117.3C672,128,768,128,864,112C960,96,1056,64,1152,64C1248,64,1344,96,1392,112L1440,128L1440,320L1392,320C1344,320,1248,320,1152,320C1056,320,960,320,864,320C768,320,672,320,576,320C480,320,384,320,288,320C192,320,96,320,48,320L0,320Z"></path>
</symbol>
<symbol id="attach" viewBox="0 0 18 18">
<path fill-rule="evenodd" clip-rule="evenodd" d="M8.78161 1.17007C9.53064 0.421042 10.5465 0.000244141 11.6058 0.000244141C12.6651 0.000244141 13.681 0.421042 14.43 1.17007C15.179 1.91909 15.5998 2.93499 15.5998 3.99427C15.5998 5.05355 15.179 6.06944 14.43 6.81847L7.52161 13.7269C7.30832 13.9402 7.05509 14.1095 6.77638 14.225C6.49767 14.3405 6.19894 14.4 5.89724 14.4001C5.28793 14.4002 4.70354 14.1582 4.27261 13.7275C3.84169 13.2967 3.59954 12.7124 3.59942 12.1031C3.59931 11.4938 3.84125 10.9094 4.27201 10.4785L10.974 3.77527L11.8236 4.62487L5.12041 11.3269C5.01854 11.4287 4.93772 11.5497 4.88258 11.6828C4.82745 11.8159 4.79907 11.9586 4.79907 12.1027C4.79907 12.2467 4.82745 12.3894 4.88258 12.5225C4.93772 12.6556 5.01854 12.7766 5.12041 12.8785C5.22229 12.9803 5.34324 13.0612 5.47635 13.1163C5.60947 13.1714 5.75213 13.1998 5.89621 13.1998C6.04029 13.1998 6.18296 13.1714 6.31607 13.1163C6.44919 13.0612 6.57013 12.9803 6.67201 12.8785L13.5804 5.97007C13.8399 5.7106 14.0457 5.40257 14.1861 5.06356C14.3265 4.72455 14.3988 4.36121 14.3988 3.99427C14.3988 3.62733 14.3265 3.26398 14.1861 2.92497C14.0457 2.58596 13.8399 2.27793 13.5804 2.01847C13.3209 1.759 13.0129 1.55318 12.6739 1.41276C12.3349 1.27234 11.9716 1.20006 11.6046 1.20006C11.2377 1.20006 10.8743 1.27234 10.5353 1.41276C10.1963 1.55318 9.88828 1.759 9.62881 2.01847L2.51521 9.13327C1.69 9.97906 1.23133 11.116 1.23861 12.2976C1.24589 13.4793 1.71852 14.6104 2.55408 15.446C3.38965 16.2816 4.52083 16.7542 5.70247 16.7615C6.88411 16.7687 8.02102 16.3101 8.86681 15.4849L15.7752 8.57527L16.6248 9.42487L9.71521 16.3333C8.64141 17.3685 7.20416 17.9408 5.71268 17.9271C4.22121 17.9133 2.79472 17.3147 1.74013 16.26C0.685531 15.2052 0.0871139 13.7786 0.0736277 12.2872C0.0601416 10.7957 0.632664 9.35852 1.66801 8.28487L8.78161 1.16887V1.17007Z" fill="#637085"/>
</svg>
</symbol>
</defs>
</svg>
