<svg aria-hidden="true" style="position: absolute; width: 0; height: 0; overflow: hidden;" version="1.1" xmlns="http://www.w3.org/2000/svg" xmlns:xlink="http://www.w3.org/1999/xlink">
<defs>
<symbol id="dots" viewBox="0 0 116 ">
<path d="M24.074 22.401c0.112 0 0.203-0.091 0.203-0.203s-0.091-0.203-0.203-0.203c-0.112 0-0.203 0.091-0.203 0.203s0.091 0.203 0.203 0.203z"></path>
<path d="M23.060 23.415c0.112 0 0.203-0.091 0.203-0.203s-0.091-0.203-0.203-0.203c-0.112 0-0.203 0.091-0.203 0.203s0.091 0.203 0.203 0.203z"></path>
<path d="M21.996 24.428c0.112 0 0.203-0.091 0.203-0.203s-0.091-0.203-0.203-0.203c-0.112 0-0.203 0.091-0.203 0.203s0.091 0.203 0.203 0.203z"></path>
<path d="M20.982 25.442c0.112 0 0.203-0.091 0.203-0.203s-0.091-0.203-0.203-0.203c-0.112 0-0.203 0.091-0.203 0.203s0.091 0.203 0.203 0.203z"></path>
<path d="M19.918 26.456c0.112 0 0.203-0.091 0.203-0.203s-0.091-0.203-0.203-0.203c-0.112 0-0.203 0.091-0.203 0.203s0.091 0.203 0.203 0.203z"></path>
<path d="M18.904 27.52c0.112 0 0.203-0.091 0.203-0.203s-0.091-0.203-0.203-0.203c-0.112 0-0.203 0.091-0.203 0.203s0.091 0.203 0.203 0.203z"></path>
<path d="M17.84 28.534c0.112 0 0.203-0.091 0.203-0.203s-0.091-0.203-0.203-0.203-0.203 0.091-0.203 0.203c0 0.112 0.091 0.203 0.203 0.203z"></path>
<path d="M16.826 29.547c0.112 0 0.203-0.091 0.203-0.203s-0.091-0.203-0.203-0.203-0.203 0.091-0.203 0.203c0 0.112 0.091 0.203 0.203 0.203z"></path>
<path d="M15.762 30.561c0.112 0 0.203-0.091 0.203-0.203s-0.091-0.203-0.203-0.203-0.203 0.091-0.203 0.203c0 0.112 0.091 0.203 0.203 0.203z"></path>
<path d="M31.524 17.536c0.112 0 0.203-0.091 0.203-0.203s-0.091-0.203-0.203-0.203c-0.112 0-0.203 0.091-0.203 0.203s0.091 0.203 0.203 0.203z"></path>
<path d="M30.51 18.549c0.112 0 0.203-0.091 0.203-0.203s-0.091-0.203-0.203-0.203c-0.112 0-0.203 0.091-0.203 0.203s0.091 0.203 0.203 0.203z"></path>
<path d="M29.446 19.563c0.112 0 0.203-0.091 0.203-0.203s-0.091-0.203-0.203-0.203c-0.112 0-0.203 0.091-0.203 0.203s0.091 0.203 0.203 0.203z"></path>
<path d="M28.432 20.577c0.112 0 0.203-0.091 0.203-0.203s-0.091-0.203-0.203-0.203c-0.112 0-0.203 0.091-0.203 0.203s0.091 0.203 0.203 0.203z"></path>
<path d="M27.368 21.59c0.112 0 0.203-0.091 0.203-0.203s-0.091-0.203-0.203-0.203c-0.112 0-0.203 0.091-0.203 0.203s0.091 0.203 0.203 0.203z"></path>
<path d="M26.354 22.604c0.112 0 0.203-0.091 0.203-0.203s-0.091-0.203-0.203-0.203c-0.112 0-0.203 0.091-0.203 0.203s0.091 0.203 0.203 0.203z"></path>
<path d="M25.29 23.617c0.112 0 0.203-0.091 0.203-0.203s-0.091-0.203-0.203-0.203c-0.112 0-0.203 0.091-0.203 0.203s0.091 0.203 0.203 0.203z"></path>
<path d="M24.276 24.631c0.112 0 0.203-0.091 0.203-0.203s-0.091-0.203-0.203-0.203c-0.112 0-0.203 0.091-0.203 0.203s0.091 0.203 0.203 0.203z"></path>
<path d="M23.212 25.645c0.112 0 0.203-0.091 0.203-0.203s-0.091-0.203-0.203-0.203c-0.112 0-0.203 0.091-0.203 0.203s0.091 0.203 0.203 0.203z"></path>
<path d="M22.198 26.709c0.112 0 0.203-0.091 0.203-0.203s-0.091-0.203-0.203-0.203c-0.112 0-0.203 0.091-0.203 0.203s0.091 0.203 0.203 0.203z"></path>
<path d="M21.134 27.723c0.112 0 0.203-0.091 0.203-0.203s-0.091-0.203-0.203-0.203c-0.112 0-0.203 0.091-0.203 0.203s0.091 0.203 0.203 0.203z"></path>
<path d="M20.070 28.736c0.112 0 0.203-0.091 0.203-0.203s-0.091-0.203-0.203-0.203c-0.112 0-0.203 0.091-0.203 0.203s0.091 0.203 0.203 0.203z"></path>
<path d="M19.056 29.75c0.112 0 0.203-0.091 0.203-0.203s-0.091-0.203-0.203-0.203c-0.112 0-0.203 0.091-0.203 0.203s0.091 0.203 0.203 0.203z"></path>
<path d="M17.992 30.764c0.112 0 0.203-0.091 0.203-0.203s-0.091-0.203-0.203-0.203c-0.112 0-0.203 0.091-0.203 0.203s0.091 0.203 0.203 0.203z"></path>
<path d="M16.978 31.777c0.112 0 0.203-0.091 0.203-0.203s-0.091-0.203-0.203-0.203c-0.112 0-0.203 0.091-0.203 0.203s0.091 0.203 0.203 0.203z"></path>
</symbol>
<symbol id="wave" viewBox="0 0 46 32">
<path d="M6.618 32c-1.018 0-2.036-0.582-2.909-1.091-1.382-0.727-2.255-1.164-2.982-0.727l-0.727-1.091c1.455-0.945 2.982-0.073 4.291 0.655 1.382 0.727 2.255 1.164 2.982 0.727 0.727-0.509 0.727-1.455 0.509-2.982-0.145-1.527-0.291-3.273 1.091-4.218 1.455-0.945 2.982-0.073 4.291 0.655 1.382 0.727 2.254 1.164 2.982 0.727 0.727-0.509 0.727-1.455 0.509-2.982-0.145-1.527-0.291-3.273 1.091-4.218 1.455-0.945 2.982-0.073 4.291 0.655 1.382 0.727 2.255 1.164 2.982 0.727 0.727-0.509 0.727-1.455 0.509-2.982-0.145-1.527-0.291-3.273 1.091-4.218 1.455-0.945 2.982-0.073 4.291 0.655 1.382 0.727 2.255 1.164 2.982 0.727 0.727-0.509 0.727-1.455 0.509-2.982-0.145-1.527-0.291-3.273 1.091-4.218 1.455-0.945 2.982-0.073 4.291 0.655 1.382 0.727 2.255 1.164 2.982 0.727 0.727-0.509 0.727-1.455 0.582-2.982s-0.291-3.273 1.091-4.218l0.727 1.091c-0.727 0.509-0.727 1.455-0.582 2.982s0.291 3.273-1.091 4.218c-1.455 0.945-2.982 0.073-4.291-0.655-1.382-0.727-2.255-1.164-2.982-0.727-0.727 0.509-0.727 1.455-0.509 2.982 0.145 1.527 0.291 3.273-1.091 4.218-1.455 0.945-2.982 0.073-4.291-0.655-1.382-0.727-2.254-1.164-2.982-0.727-0.727 0.509-0.727 1.455-0.509 2.982 0.145 1.527 0.291 3.273-1.091 4.218-1.455 0.945-2.982 0.073-4.291-0.655-1.382-0.727-2.255-1.164-2.982-0.727-0.727 0.509-0.727 1.455-0.509 2.982 0.145 1.527 0.291 3.273-1.091 4.218-1.455 0.945-2.982 0.073-4.291-0.655-1.382-0.727-2.255-1.164-2.982-0.727-0.727 0.509-0.727 1.455-0.509 2.982 0.145 1.527 0.291 3.273-1.091 4.218-0.509 0.291-0.945 0.436-1.382 0.436z"></path>
</symbol>
<symbol id="api" viewBox="0 0 24 24">
<path d="M14,12l-2,2l-2-2l2-2L14,12z M12,6l2.12,2.12l2.5-2.5L12,1L7.38,5.62l2.5,2.5L12,6z M6,12l2.12-2.12l-2.5-2.5L1,12 l4.62,4.62l2.5-2.5L6,12z M18,12l-2.12,2.12l2.5,2.5L23,12l-4.62-4.62l-2.5,2.5L18,12z M12,18l-2.12-2.12l-2.5,2.5L12,23l4.62-4.62 l-2.5-2.5L12,18z"/>
</symbol>
<symbol id="services" viewBox="0 0 84 79">
<path d="M74.8493 31.6282C77.5447 43.7203 52.8935 66.7871 31.4973 74.6902C10.1011 82.5933 10.1095 30.0477 15.1219 18.7294C20.1344 7.41103 72.1539 19.536 74.8493 31.6282Z" fill="#A7D9FF" fill-opacity="0.9"/>
<path d="M48.5867 7.99887C62.2605 12.2433 68.1782 44.5281 64.3987 67.0219C60.6192 89.5157 22.9916 64.6076 7.70219 53.4102C-7.58719 42.2129 34.9128 3.75442 48.5867 7.99887Z" fill="#0070F3" fill-opacity="0.7"/>
</symbol>
<symbol id="api" viewBox="0 0 24 24">
<path d="M14,12l-2,2l-2-2l2-2L14,12z M12,6l2.12,2.12l2.5-2.5L12,1L7.38,5.62l2.5,2.5L12,6z M6,12l2.12-2.12l-2.5-2.5L1,12 l4.62,4.62l2.5-2.5L6,12z M18,12l-2.12,2.12l2.5,2.5L23,12l-4.62-4.62l-2.5,2.5L18,12z M12,18l-2.12-2.12l-2.5,2.5L12,23l4.62-4.62 l-2.5-2.5L12,18z"/>
</symbol>
<symbol id="code" viewBox="0 0 24 24">
<path d="M9.4 16.6L4.8 12l4.6-4.6L8 6l-6 6 6 6 1.4-1.4zm5.2 0l4.6-4.6-4.6-4.6L16 6l6 6-6 6-1.4-1.4z"/>
</symbol>
</defs>
</svg>
