<svg aria-hidden="true" style="position: absolute; width: 0; height: 0; overflow: hidden;" version="1.1" xmlns="http://www.w3.org/2000/svg" xmlns:xlink="http://www.w3.org/1999/xlink">
<defs>
<symbol id="dots" viewBox="0 0 116 116">
<path d="M24.074 22.401c0.112 0 0.203-0.091 0.203-0.203s-0.091-0.203-0.203-0.203c-0.112 0-0.203 0.091-0.203 0.203s0.091 0.203 0.203 0.203z"></path>
<path d="M23.060 23.415c0.112 0 0.203-0.091 0.203-0.203s-0.091-0.203-0.203-0.203c-0.112 0-0.203 0.091-0.203 0.203s0.091 0.203 0.203 0.203z"></path>
<path d="M21.996 24.428c0.112 0 0.203-0.091 0.203-0.203s-0.091-0.203-0.203-0.203c-0.112 0-0.203 0.091-0.203 0.203s0.091 0.203 0.203 0.203z"></path>
<path d="M20.982 25.442c0.112 0 0.203-0.091 0.203-0.203s-0.091-0.203-0.203-0.203c-0.112 0-0.203 0.091-0.203 0.203s0.091 0.203 0.203 0.203z"></path>
<path d="M19.918 26.456c0.112 0 0.203-0.091 0.203-0.203s-0.091-0.203-0.203-0.203c-0.112 0-0.203 0.091-0.203 0.203s0.091 0.203 0.203 0.203z"></path>
<path d="M18.904 27.52c0.112 0 0.203-0.091 0.203-0.203s-0.091-0.203-0.203-0.203c-0.112 0-0.203 0.091-0.203 0.203s0.091 0.203 0.203 0.203z"></path>
<path d="M17.84 28.534c0.112 0 0.203-0.091 0.203-0.203s-0.091-0.203-0.203-0.203-0.203 0.091-0.203 0.203c0 0.112 0.091 0.203 0.203 0.203z"></path>
<path d="M16.826 29.547c0.112 0 0.203-0.091 0.203-0.203s-0.091-0.203-0.203-0.203-0.203 0.091-0.203 0.203c0 0.112 0.091 0.203 0.203 0.203z"></path>
<path d="M15.762 30.561c0.112 0 0.203-0.091 0.203-0.203s-0.091-0.203-0.203-0.203-0.203 0.091-0.203 0.203c0 0.112 0.091 0.203 0.203 0.203z"></path>
<path d="M31.524 17.536c0.112 0 0.203-0.091 0.203-0.203s-0.091-0.203-0.203-0.203c-0.112 0-0.203 0.091-0.203 0.203s0.091 0.203 0.203 0.203z"></path>
<path d="M30.51 18.549c0.112 0 0.203-0.091 0.203-0.203s-0.091-0.203-0.203-0.203c-0.112 0-0.203 0.091-0.203 0.203s0.091 0.203 0.203 0.203z"></path>
<path d="M29.446 19.563c0.112 0 0.203-0.091 0.203-0.203s-0.091-0.203-0.203-0.203c-0.112 0-0.203 0.091-0.203 0.203s0.091 0.203 0.203 0.203z"></path>
<path d="M28.432 20.577c0.112 0 0.203-0.091 0.203-0.203s-0.091-0.203-0.203-0.203c-0.112 0-0.203 0.091-0.203 0.203s0.091 0.203 0.203 0.203z"></path>
<path d="M27.368 21.59c0.112 0 0.203-0.091 0.203-0.203s-0.091-0.203-0.203-0.203c-0.112 0-0.203 0.091-0.203 0.203s0.091 0.203 0.203 0.203z"></path>
<path d="M26.354 22.604c0.112 0 0.203-0.091 0.203-0.203s-0.091-0.203-0.203-0.203c-0.112 0-0.203 0.091-0.203 0.203s0.091 0.203 0.203 0.203z"></path>
<path d="M25.29 23.617c0.112 0 0.203-0.091 0.203-0.203s-0.091-0.203-0.203-0.203c-0.112 0-0.203 0.091-0.203 0.203s0.091 0.203 0.203 0.203z"></path>
<path d="M24.276 24.631c0.112 0 0.203-0.091 0.203-0.203s-0.091-0.203-0.203-0.203c-0.112 0-0.203 0.091-0.203 0.203s0.091 0.203 0.203 0.203z"></path>
<path d="M23.212 25.645c0.112 0 0.203-0.091 0.203-0.203s-0.091-0.203-0.203-0.203c-0.112 0-0.203 0.091-0.203 0.203s0.091 0.203 0.203 0.203z"></path>
<path d="M22.198 26.709c0.112 0 0.203-0.091 0.203-0.203s-0.091-0.203-0.203-0.203c-0.112 0-0.203 0.091-0.203 0.203s0.091 0.203 0.203 0.203z"></path>
<path d="M21.134 27.723c0.112 0 0.203-0.091 0.203-0.203s-0.091-0.203-0.203-0.203c-0.112 0-0.203 0.091-0.203 0.203s0.091 0.203 0.203 0.203z"></path>
<path d="M20.070 28.736c0.112 0 0.203-0.091 0.203-0.203s-0.091-0.203-0.203-0.203c-0.112 0-0.203 0.091-0.203 0.203s0.091 0.203 0.203 0.203z"></path>
<path d="M19.056 29.75c0.112 0 0.203-0.091 0.203-0.203s-0.091-0.203-0.203-0.203c-0.112 0-0.203 0.091-0.203 0.203s0.091 0.203 0.203 0.203z"></path>
<path d="M17.992 30.764c0.112 0 0.203-0.091 0.203-0.203s-0.091-0.203-0.203-0.203c-0.112 0-0.203 0.091-0.203 0.203s0.091 0.203 0.203 0.203z"></path>
<path d="M16.978 31.777c0.112 0 0.203-0.091 0.203-0.203s-0.091-0.203-0.203-0.203c-0.112 0-0.203 0.091-0.203 0.203s0.091 0.203 0.203 0.203z"></path>
</symbol>
<symbol id="cros" viewBox="0 0 32 32">
<path d="M32 5.866l-2.058-2.681-29.942 22.985 2.058 2.681 29.942-22.985z"></path>
<path d="M28.702 29.942l-22.985-29.942-2.681 2.058 22.985 29.942 2.681-2.058z"></path>
</symbol>
<symbol id="wave" viewBox="0 0 46 32">
<path d="M6.618 32c-1.018 0-2.036-0.582-2.909-1.091-1.382-0.727-2.255-1.164-2.982-0.727l-0.727-1.091c1.455-0.945 2.982-0.073 4.291 0.655 1.382 0.727 2.255 1.164 2.982 0.727 0.727-0.509 0.727-1.455 0.509-2.982-0.145-1.527-0.291-3.273 1.091-4.218 1.455-0.945 2.982-0.073 4.291 0.655 1.382 0.727 2.254 1.164 2.982 0.727 0.727-0.509 0.727-1.455 0.509-2.982-0.145-1.527-0.291-3.273 1.091-4.218 1.455-0.945 2.982-0.073 4.291 0.655 1.382 0.727 2.255 1.164 2.982 0.727 0.727-0.509 0.727-1.455 0.509-2.982-0.145-1.527-0.291-3.273 1.091-4.218 1.455-0.945 2.982-0.073 4.291 0.655 1.382 0.727 2.255 1.164 2.982 0.727 0.727-0.509 0.727-1.455 0.509-2.982-0.145-1.527-0.291-3.273 1.091-4.218 1.455-0.945 2.982-0.073 4.291 0.655 1.382 0.727 2.255 1.164 2.982 0.727 0.727-0.509 0.727-1.455 0.582-2.982s-0.291-3.273 1.091-4.218l0.727 1.091c-0.727 0.509-0.727 1.455-0.582 2.982s0.291 3.273-1.091 4.218c-1.455 0.945-2.982 0.073-4.291-0.655-1.382-0.727-2.255-1.164-2.982-0.727-0.727 0.509-0.727 1.455-0.509 2.982 0.145 1.527 0.291 3.273-1.091 4.218-1.455 0.945-2.982 0.073-4.291-0.655-1.382-0.727-2.254-1.164-2.982-0.727-0.727 0.509-0.727 1.455-0.509 2.982 0.145 1.527 0.291 3.273-1.091 4.218-1.455 0.945-2.982 0.073-4.291-0.655-1.382-0.727-2.255-1.164-2.982-0.727-0.727 0.509-0.727 1.455-0.509 2.982 0.145 1.527 0.291 3.273-1.091 4.218-1.455 0.945-2.982 0.073-4.291-0.655-1.382-0.727-2.255-1.164-2.982-0.727-0.727 0.509-0.727 1.455-0.509 2.982 0.145 1.527 0.291 3.273-1.091 4.218-0.509 0.291-0.945 0.436-1.382 0.436z"></path>
</symbol>
<symbol id="circle" viewBox="0 0 32 32">
<path d="M13.663 29.663c7.546 1.291 14.709-3.78 16-11.326s-3.78-14.709-11.326-16c-7.546-1.291-14.709 3.78-16 11.326s3.78 14.709 11.326 16z"></path>
</symbol>
</defs>
</svg>
